G04 #@! TF.GenerationSoftware,KiCad,Pcbnew,5.1.10-88a1d61d58~90~ubuntu20.04.1*
G04 #@! TF.CreationDate,2021-10-12T10:11:59+02:00*
G04 #@! TF.ProjectId,attiny85_I2C_RGB_LED_v2,61747469-6e79-4383-955f-4932435f5247,2.0*
G04 #@! TF.SameCoordinates,Original*
G04 #@! TF.FileFunction,Copper,L2,Bot*
G04 #@! TF.FilePolarity,Positive*
%FSLAX46Y46*%
G04 Gerber Fmt 4.6, Leading zero omitted, Abs format (unit mm)*
G04 Created by KiCad (PCBNEW 5.1.10-88a1d61d58~90~ubuntu20.04.1) date 2021-10-12 10:11:59*
%MOMM*%
%LPD*%
G01*
G04 APERTURE LIST*
G04 #@! TA.AperFunction,ComponentPad*
%ADD10O,1.600000X1.600000*%
G04 #@! TD*
G04 #@! TA.AperFunction,ComponentPad*
%ADD11C,1.600000*%
G04 #@! TD*
G04 #@! TA.AperFunction,ComponentPad*
%ADD12R,1.600000X1.600000*%
G04 #@! TD*
G04 #@! TA.AperFunction,ComponentPad*
%ADD13R,1.700000X1.700000*%
G04 #@! TD*
G04 #@! TA.AperFunction,ComponentPad*
%ADD14O,1.700000X1.700000*%
G04 #@! TD*
G04 #@! TA.AperFunction,ComponentPad*
%ADD15R,1.800000X1.070000*%
G04 #@! TD*
G04 #@! TA.AperFunction,ComponentPad*
%ADD16O,1.800000X1.070000*%
G04 #@! TD*
G04 #@! TA.AperFunction,ComponentPad*
%ADD17C,1.400000*%
G04 #@! TD*
G04 #@! TA.AperFunction,Conductor*
%ADD18C,0.500000*%
G04 #@! TD*
G04 #@! TA.AperFunction,Conductor*
%ADD19C,0.254000*%
G04 #@! TD*
G04 #@! TA.AperFunction,Conductor*
%ADD20C,0.200000*%
G04 #@! TD*
G04 APERTURE END LIST*
D10*
X119405400Y-139700000D03*
D11*
X111785400Y-139700000D03*
X111785400Y-136400000D03*
D10*
X119405400Y-136400000D03*
D12*
X119330000Y-124760000D03*
D10*
X111710000Y-132380000D03*
X116790000Y-124760000D03*
X114250000Y-132380000D03*
X114250000Y-124760000D03*
X116790000Y-132380000D03*
X111710000Y-124760000D03*
X119330000Y-132380000D03*
D13*
X121825400Y-145626400D03*
D14*
X119285400Y-145626400D03*
X116745400Y-145626400D03*
X114205400Y-145626400D03*
D15*
X123300000Y-118100000D03*
D16*
X123300000Y-119370000D03*
X123300000Y-120640000D03*
X123300000Y-121910000D03*
D17*
X123300000Y-127400000D03*
X123300000Y-129900000D03*
D11*
X110000000Y-113500000D03*
D10*
X110000000Y-121120000D03*
X116600000Y-121120000D03*
D11*
X116600000Y-113500000D03*
X113300000Y-113500000D03*
D10*
X113300000Y-121120000D03*
D18*
X123300000Y-130889949D02*
X123300000Y-129900000D01*
X123300000Y-140409719D02*
X123300000Y-130889949D01*
X119285400Y-144424319D02*
X123300000Y-140409719D01*
X119285400Y-145626400D02*
X119285400Y-144424319D01*
X123300000Y-129900000D02*
X121234200Y-127834200D01*
X115178198Y-127834200D02*
X121234200Y-127834200D01*
X112903997Y-125559999D02*
X115178198Y-127834200D01*
X112509999Y-125559999D02*
X112903997Y-125559999D01*
X111710000Y-124760000D02*
X112509999Y-125559999D01*
X123300000Y-119370000D02*
X123300000Y-119454990D01*
D19*
X128465000Y-146356400D02*
X123313472Y-146356400D01*
X123313472Y-144776400D01*
X123301212Y-144651918D01*
X123264902Y-144532220D01*
X123205937Y-144421906D01*
X123126585Y-144325215D01*
X123029894Y-144245863D01*
X122919580Y-144186898D01*
X122799882Y-144150588D01*
X122675400Y-144138328D01*
X120975400Y-144138328D01*
X120850918Y-144150588D01*
X120731220Y-144186898D01*
X120620906Y-144245863D01*
X120524215Y-144325215D01*
X120444863Y-144421906D01*
X120385898Y-144532220D01*
X120361434Y-144612866D01*
X120285669Y-144528812D01*
X120052320Y-144354759D01*
X119789499Y-144229575D01*
X119642290Y-144184924D01*
X119412400Y-144306245D01*
X119412400Y-145499400D01*
X119432400Y-145499400D01*
X119432400Y-145753400D01*
X119412400Y-145753400D01*
X119412400Y-145773400D01*
X119158400Y-145773400D01*
X119158400Y-145753400D01*
X119138400Y-145753400D01*
X119138400Y-145499400D01*
X119158400Y-145499400D01*
X119158400Y-144306245D01*
X118928510Y-144184924D01*
X118781301Y-144229575D01*
X118518480Y-144354759D01*
X118285131Y-144528812D01*
X118090222Y-144745045D01*
X118020595Y-144861934D01*
X117898875Y-144679768D01*
X117692032Y-144472925D01*
X117448811Y-144310410D01*
X117178558Y-144198468D01*
X116891660Y-144141400D01*
X116599140Y-144141400D01*
X116312242Y-144198468D01*
X116041989Y-144310410D01*
X115798768Y-144472925D01*
X115591925Y-144679768D01*
X115475400Y-144854160D01*
X115358875Y-144679768D01*
X115152032Y-144472925D01*
X114908811Y-144310410D01*
X114638558Y-144198468D01*
X114351660Y-144141400D01*
X114059140Y-144141400D01*
X113772242Y-144198468D01*
X113501989Y-144310410D01*
X113258768Y-144472925D01*
X113051925Y-144679768D01*
X112889410Y-144922989D01*
X112777468Y-145193242D01*
X112720400Y-145480140D01*
X112720400Y-145772660D01*
X112777468Y-146059558D01*
X112889410Y-146329811D01*
X112907176Y-146356400D01*
X107535000Y-146356400D01*
X107535000Y-139558665D01*
X110350400Y-139558665D01*
X110350400Y-139841335D01*
X110405547Y-140118574D01*
X110513720Y-140379727D01*
X110670763Y-140614759D01*
X110870641Y-140814637D01*
X111105673Y-140971680D01*
X111366826Y-141079853D01*
X111644065Y-141135000D01*
X111926735Y-141135000D01*
X112203974Y-141079853D01*
X112465127Y-140971680D01*
X112700159Y-140814637D01*
X112900037Y-140614759D01*
X113057080Y-140379727D01*
X113165253Y-140118574D01*
X113220400Y-139841335D01*
X113220400Y-139558665D01*
X117970400Y-139558665D01*
X117970400Y-139841335D01*
X118025547Y-140118574D01*
X118133720Y-140379727D01*
X118290763Y-140614759D01*
X118490641Y-140814637D01*
X118725673Y-140971680D01*
X118986826Y-141079853D01*
X119264065Y-141135000D01*
X119546735Y-141135000D01*
X119823974Y-141079853D01*
X120085127Y-140971680D01*
X120320159Y-140814637D01*
X120520037Y-140614759D01*
X120677080Y-140379727D01*
X120785253Y-140118574D01*
X120840400Y-139841335D01*
X120840400Y-139558665D01*
X120785253Y-139281426D01*
X120677080Y-139020273D01*
X120520037Y-138785241D01*
X120320159Y-138585363D01*
X120085127Y-138428320D01*
X119823974Y-138320147D01*
X119546735Y-138265000D01*
X119264065Y-138265000D01*
X118986826Y-138320147D01*
X118725673Y-138428320D01*
X118490641Y-138585363D01*
X118290763Y-138785241D01*
X118133720Y-139020273D01*
X118025547Y-139281426D01*
X117970400Y-139558665D01*
X113220400Y-139558665D01*
X113165253Y-139281426D01*
X113057080Y-139020273D01*
X112900037Y-138785241D01*
X112700159Y-138585363D01*
X112465127Y-138428320D01*
X112203974Y-138320147D01*
X111926735Y-138265000D01*
X111644065Y-138265000D01*
X111366826Y-138320147D01*
X111105673Y-138428320D01*
X110870641Y-138585363D01*
X110670763Y-138785241D01*
X110513720Y-139020273D01*
X110405547Y-139281426D01*
X110350400Y-139558665D01*
X107535000Y-139558665D01*
X107535000Y-136258665D01*
X110350400Y-136258665D01*
X110350400Y-136541335D01*
X110405547Y-136818574D01*
X110513720Y-137079727D01*
X110670763Y-137314759D01*
X110870641Y-137514637D01*
X111105673Y-137671680D01*
X111366826Y-137779853D01*
X111644065Y-137835000D01*
X111926735Y-137835000D01*
X112203974Y-137779853D01*
X112465127Y-137671680D01*
X112700159Y-137514637D01*
X112900037Y-137314759D01*
X113057080Y-137079727D01*
X113165253Y-136818574D01*
X113220400Y-136541335D01*
X113220400Y-136258665D01*
X117970400Y-136258665D01*
X117970400Y-136541335D01*
X118025547Y-136818574D01*
X118133720Y-137079727D01*
X118290763Y-137314759D01*
X118490641Y-137514637D01*
X118725673Y-137671680D01*
X118986826Y-137779853D01*
X119264065Y-137835000D01*
X119546735Y-137835000D01*
X119823974Y-137779853D01*
X120085127Y-137671680D01*
X120320159Y-137514637D01*
X120520037Y-137314759D01*
X120677080Y-137079727D01*
X120785253Y-136818574D01*
X120840400Y-136541335D01*
X120840400Y-136258665D01*
X120785253Y-135981426D01*
X120677080Y-135720273D01*
X120520037Y-135485241D01*
X120320159Y-135285363D01*
X120085127Y-135128320D01*
X119823974Y-135020147D01*
X119546735Y-134965000D01*
X119264065Y-134965000D01*
X118986826Y-135020147D01*
X118725673Y-135128320D01*
X118490641Y-135285363D01*
X118290763Y-135485241D01*
X118133720Y-135720273D01*
X118025547Y-135981426D01*
X117970400Y-136258665D01*
X113220400Y-136258665D01*
X113165253Y-135981426D01*
X113057080Y-135720273D01*
X112900037Y-135485241D01*
X112700159Y-135285363D01*
X112465127Y-135128320D01*
X112203974Y-135020147D01*
X111926735Y-134965000D01*
X111644065Y-134965000D01*
X111366826Y-135020147D01*
X111105673Y-135128320D01*
X110870641Y-135285363D01*
X110670763Y-135485241D01*
X110513720Y-135720273D01*
X110405547Y-135981426D01*
X110350400Y-136258665D01*
X107535000Y-136258665D01*
X107535000Y-132238665D01*
X110275000Y-132238665D01*
X110275000Y-132521335D01*
X110330147Y-132798574D01*
X110438320Y-133059727D01*
X110595363Y-133294759D01*
X110795241Y-133494637D01*
X111030273Y-133651680D01*
X111291426Y-133759853D01*
X111568665Y-133815000D01*
X111851335Y-133815000D01*
X112128574Y-133759853D01*
X112389727Y-133651680D01*
X112624759Y-133494637D01*
X112824637Y-133294759D01*
X112980000Y-133062241D01*
X113135363Y-133294759D01*
X113335241Y-133494637D01*
X113570273Y-133651680D01*
X113831426Y-133759853D01*
X114108665Y-133815000D01*
X114391335Y-133815000D01*
X114668574Y-133759853D01*
X114929727Y-133651680D01*
X115164759Y-133494637D01*
X115364637Y-133294759D01*
X115520000Y-133062241D01*
X115675363Y-133294759D01*
X115875241Y-133494637D01*
X116110273Y-133651680D01*
X116371426Y-133759853D01*
X116648665Y-133815000D01*
X116931335Y-133815000D01*
X117208574Y-133759853D01*
X117469727Y-133651680D01*
X117704759Y-133494637D01*
X117904637Y-133294759D01*
X118060000Y-133062241D01*
X118215363Y-133294759D01*
X118415241Y-133494637D01*
X118650273Y-133651680D01*
X118911426Y-133759853D01*
X119188665Y-133815000D01*
X119471335Y-133815000D01*
X119748574Y-133759853D01*
X120009727Y-133651680D01*
X120244759Y-133494637D01*
X120444637Y-133294759D01*
X120601680Y-133059727D01*
X120709853Y-132798574D01*
X120765000Y-132521335D01*
X120765000Y-132238665D01*
X120709853Y-131961426D01*
X120601680Y-131700273D01*
X120444637Y-131465241D01*
X120244759Y-131265363D01*
X120009727Y-131108320D01*
X119748574Y-131000147D01*
X119471335Y-130945000D01*
X119188665Y-130945000D01*
X118911426Y-131000147D01*
X118650273Y-131108320D01*
X118415241Y-131265363D01*
X118215363Y-131465241D01*
X118060000Y-131697759D01*
X117904637Y-131465241D01*
X117704759Y-131265363D01*
X117469727Y-131108320D01*
X117208574Y-131000147D01*
X116931335Y-130945000D01*
X116648665Y-130945000D01*
X116371426Y-131000147D01*
X116110273Y-131108320D01*
X115875241Y-131265363D01*
X115675363Y-131465241D01*
X115520000Y-131697759D01*
X115364637Y-131465241D01*
X115164759Y-131265363D01*
X114929727Y-131108320D01*
X114668574Y-131000147D01*
X114391335Y-130945000D01*
X114108665Y-130945000D01*
X113831426Y-131000147D01*
X113570273Y-131108320D01*
X113335241Y-131265363D01*
X113135363Y-131465241D01*
X112980000Y-131697759D01*
X112824637Y-131465241D01*
X112624759Y-131265363D01*
X112389727Y-131108320D01*
X112128574Y-131000147D01*
X111851335Y-130945000D01*
X111568665Y-130945000D01*
X111291426Y-131000147D01*
X111030273Y-131108320D01*
X110795241Y-131265363D01*
X110595363Y-131465241D01*
X110438320Y-131700273D01*
X110330147Y-131961426D01*
X110275000Y-132238665D01*
X107535000Y-132238665D01*
X107535000Y-130821269D01*
X122558336Y-130821269D01*
X122617797Y-131055037D01*
X122856242Y-131165934D01*
X123111740Y-131228183D01*
X123374473Y-131239390D01*
X123634344Y-131199125D01*
X123881366Y-131108935D01*
X123982203Y-131055037D01*
X124041664Y-130821269D01*
X123300000Y-130079605D01*
X122558336Y-130821269D01*
X107535000Y-130821269D01*
X107535000Y-129974473D01*
X121960610Y-129974473D01*
X122000875Y-130234344D01*
X122091065Y-130481366D01*
X122144963Y-130582203D01*
X122378731Y-130641664D01*
X123120395Y-129900000D01*
X123479605Y-129900000D01*
X124221269Y-130641664D01*
X124455037Y-130582203D01*
X124565934Y-130343758D01*
X124628183Y-130088260D01*
X124639390Y-129825527D01*
X124599125Y-129565656D01*
X124508935Y-129318634D01*
X124455037Y-129217797D01*
X124221269Y-129158336D01*
X123479605Y-129900000D01*
X123120395Y-129900000D01*
X122378731Y-129158336D01*
X122144963Y-129217797D01*
X122034066Y-129456242D01*
X121971817Y-129711740D01*
X121960610Y-129974473D01*
X107535000Y-129974473D01*
X107535000Y-127268514D01*
X121965000Y-127268514D01*
X121965000Y-127531486D01*
X122016304Y-127789405D01*
X122116939Y-128032359D01*
X122263038Y-128251013D01*
X122448987Y-128436962D01*
X122667641Y-128583061D01*
X122830118Y-128650361D01*
X122718634Y-128691065D01*
X122617797Y-128744963D01*
X122558336Y-128978731D01*
X123300000Y-129720395D01*
X124041664Y-128978731D01*
X123982203Y-128744963D01*
X123774596Y-128648408D01*
X123932359Y-128583061D01*
X124151013Y-128436962D01*
X124336962Y-128251013D01*
X124483061Y-128032359D01*
X124583696Y-127789405D01*
X124635000Y-127531486D01*
X124635000Y-127268514D01*
X124583696Y-127010595D01*
X124483061Y-126767641D01*
X124336962Y-126548987D01*
X124151013Y-126363038D01*
X123932359Y-126216939D01*
X123689405Y-126116304D01*
X123431486Y-126065000D01*
X123168514Y-126065000D01*
X122910595Y-126116304D01*
X122667641Y-126216939D01*
X122448987Y-126363038D01*
X122263038Y-126548987D01*
X122116939Y-126767641D01*
X122016304Y-127010595D01*
X121965000Y-127268514D01*
X107535000Y-127268514D01*
X107535000Y-125109040D01*
X110318091Y-125109040D01*
X110412930Y-125373881D01*
X110557615Y-125615131D01*
X110746586Y-125823519D01*
X110972580Y-125991037D01*
X111226913Y-126111246D01*
X111360961Y-126151904D01*
X111583000Y-126029915D01*
X111583000Y-124887000D01*
X110439376Y-124887000D01*
X110318091Y-125109040D01*
X107535000Y-125109040D01*
X107535000Y-124410960D01*
X110318091Y-124410960D01*
X110439376Y-124633000D01*
X111583000Y-124633000D01*
X111583000Y-123490085D01*
X111837000Y-123490085D01*
X111837000Y-124633000D01*
X111857000Y-124633000D01*
X111857000Y-124887000D01*
X111837000Y-124887000D01*
X111837000Y-126029915D01*
X112059039Y-126151904D01*
X112193087Y-126111246D01*
X112447420Y-125991037D01*
X112673414Y-125823519D01*
X112862385Y-125615131D01*
X112973933Y-125429135D01*
X112978320Y-125439727D01*
X113135363Y-125674759D01*
X113335241Y-125874637D01*
X113570273Y-126031680D01*
X113831426Y-126139853D01*
X114108665Y-126195000D01*
X114391335Y-126195000D01*
X114668574Y-126139853D01*
X114929727Y-126031680D01*
X115164759Y-125874637D01*
X115364637Y-125674759D01*
X115520000Y-125442241D01*
X115675363Y-125674759D01*
X115875241Y-125874637D01*
X116110273Y-126031680D01*
X116371426Y-126139853D01*
X116648665Y-126195000D01*
X116931335Y-126195000D01*
X117208574Y-126139853D01*
X117469727Y-126031680D01*
X117704759Y-125874637D01*
X117903357Y-125676039D01*
X117904188Y-125684482D01*
X117940498Y-125804180D01*
X117999463Y-125914494D01*
X118078815Y-126011185D01*
X118175506Y-126090537D01*
X118285820Y-126149502D01*
X118405518Y-126185812D01*
X118530000Y-126198072D01*
X120130000Y-126198072D01*
X120254482Y-126185812D01*
X120374180Y-126149502D01*
X120484494Y-126090537D01*
X120581185Y-126011185D01*
X120660537Y-125914494D01*
X120719502Y-125804180D01*
X120755812Y-125684482D01*
X120768072Y-125560000D01*
X120768072Y-123960000D01*
X120755812Y-123835518D01*
X120719502Y-123715820D01*
X120660537Y-123605506D01*
X120581185Y-123508815D01*
X120484494Y-123429463D01*
X120374180Y-123370498D01*
X120254482Y-123334188D01*
X120130000Y-123321928D01*
X118530000Y-123321928D01*
X118405518Y-123334188D01*
X118285820Y-123370498D01*
X118175506Y-123429463D01*
X118078815Y-123508815D01*
X117999463Y-123605506D01*
X117940498Y-123715820D01*
X117904188Y-123835518D01*
X117903357Y-123843961D01*
X117704759Y-123645363D01*
X117469727Y-123488320D01*
X117208574Y-123380147D01*
X116931335Y-123325000D01*
X116648665Y-123325000D01*
X116371426Y-123380147D01*
X116110273Y-123488320D01*
X115875241Y-123645363D01*
X115675363Y-123845241D01*
X115520000Y-124077759D01*
X115364637Y-123845241D01*
X115164759Y-123645363D01*
X114929727Y-123488320D01*
X114668574Y-123380147D01*
X114391335Y-123325000D01*
X114108665Y-123325000D01*
X113831426Y-123380147D01*
X113570273Y-123488320D01*
X113335241Y-123645363D01*
X113135363Y-123845241D01*
X112978320Y-124080273D01*
X112973933Y-124090865D01*
X112862385Y-123904869D01*
X112673414Y-123696481D01*
X112447420Y-123528963D01*
X112193087Y-123408754D01*
X112059039Y-123368096D01*
X111837000Y-123490085D01*
X111583000Y-123490085D01*
X111360961Y-123368096D01*
X111226913Y-123408754D01*
X110972580Y-123528963D01*
X110746586Y-123696481D01*
X110557615Y-123904869D01*
X110412930Y-124146119D01*
X110318091Y-124410960D01*
X107535000Y-124410960D01*
X107535000Y-120978665D01*
X108565000Y-120978665D01*
X108565000Y-121261335D01*
X108620147Y-121538574D01*
X108728320Y-121799727D01*
X108885363Y-122034759D01*
X109085241Y-122234637D01*
X109320273Y-122391680D01*
X109581426Y-122499853D01*
X109858665Y-122555000D01*
X110141335Y-122555000D01*
X110418574Y-122499853D01*
X110679727Y-122391680D01*
X110914759Y-122234637D01*
X111114637Y-122034759D01*
X111271680Y-121799727D01*
X111379853Y-121538574D01*
X111435000Y-121261335D01*
X111435000Y-120978665D01*
X111865000Y-120978665D01*
X111865000Y-121261335D01*
X111920147Y-121538574D01*
X112028320Y-121799727D01*
X112185363Y-122034759D01*
X112385241Y-122234637D01*
X112620273Y-122391680D01*
X112881426Y-122499853D01*
X113158665Y-122555000D01*
X113441335Y-122555000D01*
X113718574Y-122499853D01*
X113979727Y-122391680D01*
X114214759Y-122234637D01*
X114414637Y-122034759D01*
X114571680Y-121799727D01*
X114679853Y-121538574D01*
X114735000Y-121261335D01*
X114735000Y-120978665D01*
X115165000Y-120978665D01*
X115165000Y-121261335D01*
X115220147Y-121538574D01*
X115328320Y-121799727D01*
X115485363Y-122034759D01*
X115685241Y-122234637D01*
X115920273Y-122391680D01*
X116181426Y-122499853D01*
X116458665Y-122555000D01*
X116741335Y-122555000D01*
X117018574Y-122499853D01*
X117279727Y-122391680D01*
X117514759Y-122234637D01*
X117714637Y-122034759D01*
X117871680Y-121799727D01*
X117979853Y-121538574D01*
X118035000Y-121261335D01*
X118035000Y-120978665D01*
X117979853Y-120701426D01*
X117871680Y-120440273D01*
X117714637Y-120205241D01*
X117514759Y-120005363D01*
X117279727Y-119848320D01*
X117018574Y-119740147D01*
X116741335Y-119685000D01*
X116458665Y-119685000D01*
X116181426Y-119740147D01*
X115920273Y-119848320D01*
X115685241Y-120005363D01*
X115485363Y-120205241D01*
X115328320Y-120440273D01*
X115220147Y-120701426D01*
X115165000Y-120978665D01*
X114735000Y-120978665D01*
X114679853Y-120701426D01*
X114571680Y-120440273D01*
X114414637Y-120205241D01*
X114214759Y-120005363D01*
X113979727Y-119848320D01*
X113718574Y-119740147D01*
X113441335Y-119685000D01*
X113158665Y-119685000D01*
X112881426Y-119740147D01*
X112620273Y-119848320D01*
X112385241Y-120005363D01*
X112185363Y-120205241D01*
X112028320Y-120440273D01*
X111920147Y-120701426D01*
X111865000Y-120978665D01*
X111435000Y-120978665D01*
X111379853Y-120701426D01*
X111271680Y-120440273D01*
X111114637Y-120205241D01*
X110914759Y-120005363D01*
X110679727Y-119848320D01*
X110418574Y-119740147D01*
X110141335Y-119685000D01*
X109858665Y-119685000D01*
X109581426Y-119740147D01*
X109320273Y-119848320D01*
X109085241Y-120005363D01*
X108885363Y-120205241D01*
X108728320Y-120440273D01*
X108620147Y-120701426D01*
X108565000Y-120978665D01*
X107535000Y-120978665D01*
X107535000Y-119370000D01*
X121759339Y-119370000D01*
X121781929Y-119599360D01*
X121848831Y-119819906D01*
X121947766Y-120005000D01*
X121848831Y-120190094D01*
X121781929Y-120410640D01*
X121759339Y-120640000D01*
X121781929Y-120869360D01*
X121848831Y-121089906D01*
X121947766Y-121275000D01*
X121848831Y-121460094D01*
X121781929Y-121680640D01*
X121759339Y-121910000D01*
X121781929Y-122139360D01*
X121848831Y-122359906D01*
X121957474Y-122563162D01*
X122103682Y-122741318D01*
X122281838Y-122887526D01*
X122485094Y-122996169D01*
X122705640Y-123063071D01*
X122877523Y-123080000D01*
X123722477Y-123080000D01*
X123894360Y-123063071D01*
X124114906Y-122996169D01*
X124318162Y-122887526D01*
X124496318Y-122741318D01*
X124642526Y-122563162D01*
X124751169Y-122359906D01*
X124818071Y-122139360D01*
X124840661Y-121910000D01*
X124818071Y-121680640D01*
X124751169Y-121460094D01*
X124652234Y-121275000D01*
X124751169Y-121089906D01*
X124818071Y-120869360D01*
X124840661Y-120640000D01*
X124818071Y-120410640D01*
X124751169Y-120190094D01*
X124652234Y-120005000D01*
X124751169Y-119819906D01*
X124818071Y-119599360D01*
X124840661Y-119370000D01*
X124818071Y-119140640D01*
X124757130Y-118939743D01*
X124789502Y-118879180D01*
X124825812Y-118759482D01*
X124838072Y-118635000D01*
X124838072Y-117565000D01*
X124825812Y-117440518D01*
X124789502Y-117320820D01*
X124730537Y-117210506D01*
X124651185Y-117113815D01*
X124554494Y-117034463D01*
X124444180Y-116975498D01*
X124324482Y-116939188D01*
X124200000Y-116926928D01*
X122400000Y-116926928D01*
X122275518Y-116939188D01*
X122155820Y-116975498D01*
X122045506Y-117034463D01*
X121948815Y-117113815D01*
X121869463Y-117210506D01*
X121810498Y-117320820D01*
X121774188Y-117440518D01*
X121761928Y-117565000D01*
X121761928Y-118635000D01*
X121774188Y-118759482D01*
X121810498Y-118879180D01*
X121842870Y-118939743D01*
X121781929Y-119140640D01*
X121759339Y-119370000D01*
X107535000Y-119370000D01*
X107535000Y-113358665D01*
X108565000Y-113358665D01*
X108565000Y-113641335D01*
X108620147Y-113918574D01*
X108728320Y-114179727D01*
X108885363Y-114414759D01*
X109085241Y-114614637D01*
X109320273Y-114771680D01*
X109581426Y-114879853D01*
X109858665Y-114935000D01*
X110141335Y-114935000D01*
X110418574Y-114879853D01*
X110679727Y-114771680D01*
X110914759Y-114614637D01*
X111114637Y-114414759D01*
X111271680Y-114179727D01*
X111379853Y-113918574D01*
X111435000Y-113641335D01*
X111435000Y-113358665D01*
X111865000Y-113358665D01*
X111865000Y-113641335D01*
X111920147Y-113918574D01*
X112028320Y-114179727D01*
X112185363Y-114414759D01*
X112385241Y-114614637D01*
X112620273Y-114771680D01*
X112881426Y-114879853D01*
X113158665Y-114935000D01*
X113441335Y-114935000D01*
X113718574Y-114879853D01*
X113979727Y-114771680D01*
X114214759Y-114614637D01*
X114414637Y-114414759D01*
X114571680Y-114179727D01*
X114679853Y-113918574D01*
X114735000Y-113641335D01*
X114735000Y-113358665D01*
X115165000Y-113358665D01*
X115165000Y-113641335D01*
X115220147Y-113918574D01*
X115328320Y-114179727D01*
X115485363Y-114414759D01*
X115685241Y-114614637D01*
X115920273Y-114771680D01*
X116181426Y-114879853D01*
X116458665Y-114935000D01*
X116741335Y-114935000D01*
X117018574Y-114879853D01*
X117279727Y-114771680D01*
X117514759Y-114614637D01*
X117714637Y-114414759D01*
X117871680Y-114179727D01*
X117979853Y-113918574D01*
X118035000Y-113641335D01*
X118035000Y-113358665D01*
X117979853Y-113081426D01*
X117871680Y-112820273D01*
X117714637Y-112585241D01*
X117514759Y-112385363D01*
X117279727Y-112228320D01*
X117018574Y-112120147D01*
X116741335Y-112065000D01*
X116458665Y-112065000D01*
X116181426Y-112120147D01*
X115920273Y-112228320D01*
X115685241Y-112385363D01*
X115485363Y-112585241D01*
X115328320Y-112820273D01*
X115220147Y-113081426D01*
X115165000Y-113358665D01*
X114735000Y-113358665D01*
X114679853Y-113081426D01*
X114571680Y-112820273D01*
X114414637Y-112585241D01*
X114214759Y-112385363D01*
X113979727Y-112228320D01*
X113718574Y-112120147D01*
X113441335Y-112065000D01*
X113158665Y-112065000D01*
X112881426Y-112120147D01*
X112620273Y-112228320D01*
X112385241Y-112385363D01*
X112185363Y-112585241D01*
X112028320Y-112820273D01*
X111920147Y-113081426D01*
X111865000Y-113358665D01*
X111435000Y-113358665D01*
X111379853Y-113081426D01*
X111271680Y-112820273D01*
X111114637Y-112585241D01*
X110914759Y-112385363D01*
X110679727Y-112228320D01*
X110418574Y-112120147D01*
X110141335Y-112065000D01*
X109858665Y-112065000D01*
X109581426Y-112120147D01*
X109320273Y-112228320D01*
X109085241Y-112385363D01*
X108885363Y-112585241D01*
X108728320Y-112820273D01*
X108620147Y-113081426D01*
X108565000Y-113358665D01*
X107535000Y-113358665D01*
X107535000Y-111435000D01*
X128465001Y-111435000D01*
X128465000Y-146356400D01*
G04 #@! TA.AperFunction,Conductor*
D20*
G36*
X128465000Y-146356400D02*
G01*
X123313472Y-146356400D01*
X123313472Y-144776400D01*
X123301212Y-144651918D01*
X123264902Y-144532220D01*
X123205937Y-144421906D01*
X123126585Y-144325215D01*
X123029894Y-144245863D01*
X122919580Y-144186898D01*
X122799882Y-144150588D01*
X122675400Y-144138328D01*
X120975400Y-144138328D01*
X120850918Y-144150588D01*
X120731220Y-144186898D01*
X120620906Y-144245863D01*
X120524215Y-144325215D01*
X120444863Y-144421906D01*
X120385898Y-144532220D01*
X120361434Y-144612866D01*
X120285669Y-144528812D01*
X120052320Y-144354759D01*
X119789499Y-144229575D01*
X119642290Y-144184924D01*
X119412400Y-144306245D01*
X119412400Y-145499400D01*
X119432400Y-145499400D01*
X119432400Y-145753400D01*
X119412400Y-145753400D01*
X119412400Y-145773400D01*
X119158400Y-145773400D01*
X119158400Y-145753400D01*
X119138400Y-145753400D01*
X119138400Y-145499400D01*
X119158400Y-145499400D01*
X119158400Y-144306245D01*
X118928510Y-144184924D01*
X118781301Y-144229575D01*
X118518480Y-144354759D01*
X118285131Y-144528812D01*
X118090222Y-144745045D01*
X118020595Y-144861934D01*
X117898875Y-144679768D01*
X117692032Y-144472925D01*
X117448811Y-144310410D01*
X117178558Y-144198468D01*
X116891660Y-144141400D01*
X116599140Y-144141400D01*
X116312242Y-144198468D01*
X116041989Y-144310410D01*
X115798768Y-144472925D01*
X115591925Y-144679768D01*
X115475400Y-144854160D01*
X115358875Y-144679768D01*
X115152032Y-144472925D01*
X114908811Y-144310410D01*
X114638558Y-144198468D01*
X114351660Y-144141400D01*
X114059140Y-144141400D01*
X113772242Y-144198468D01*
X113501989Y-144310410D01*
X113258768Y-144472925D01*
X113051925Y-144679768D01*
X112889410Y-144922989D01*
X112777468Y-145193242D01*
X112720400Y-145480140D01*
X112720400Y-145772660D01*
X112777468Y-146059558D01*
X112889410Y-146329811D01*
X112907176Y-146356400D01*
X107535000Y-146356400D01*
X107535000Y-139558665D01*
X110350400Y-139558665D01*
X110350400Y-139841335D01*
X110405547Y-140118574D01*
X110513720Y-140379727D01*
X110670763Y-140614759D01*
X110870641Y-140814637D01*
X111105673Y-140971680D01*
X111366826Y-141079853D01*
X111644065Y-141135000D01*
X111926735Y-141135000D01*
X112203974Y-141079853D01*
X112465127Y-140971680D01*
X112700159Y-140814637D01*
X112900037Y-140614759D01*
X113057080Y-140379727D01*
X113165253Y-140118574D01*
X113220400Y-139841335D01*
X113220400Y-139558665D01*
X117970400Y-139558665D01*
X117970400Y-139841335D01*
X118025547Y-140118574D01*
X118133720Y-140379727D01*
X118290763Y-140614759D01*
X118490641Y-140814637D01*
X118725673Y-140971680D01*
X118986826Y-141079853D01*
X119264065Y-141135000D01*
X119546735Y-141135000D01*
X119823974Y-141079853D01*
X120085127Y-140971680D01*
X120320159Y-140814637D01*
X120520037Y-140614759D01*
X120677080Y-140379727D01*
X120785253Y-140118574D01*
X120840400Y-139841335D01*
X120840400Y-139558665D01*
X120785253Y-139281426D01*
X120677080Y-139020273D01*
X120520037Y-138785241D01*
X120320159Y-138585363D01*
X120085127Y-138428320D01*
X119823974Y-138320147D01*
X119546735Y-138265000D01*
X119264065Y-138265000D01*
X118986826Y-138320147D01*
X118725673Y-138428320D01*
X118490641Y-138585363D01*
X118290763Y-138785241D01*
X118133720Y-139020273D01*
X118025547Y-139281426D01*
X117970400Y-139558665D01*
X113220400Y-139558665D01*
X113165253Y-139281426D01*
X113057080Y-139020273D01*
X112900037Y-138785241D01*
X112700159Y-138585363D01*
X112465127Y-138428320D01*
X112203974Y-138320147D01*
X111926735Y-138265000D01*
X111644065Y-138265000D01*
X111366826Y-138320147D01*
X111105673Y-138428320D01*
X110870641Y-138585363D01*
X110670763Y-138785241D01*
X110513720Y-139020273D01*
X110405547Y-139281426D01*
X110350400Y-139558665D01*
X107535000Y-139558665D01*
X107535000Y-136258665D01*
X110350400Y-136258665D01*
X110350400Y-136541335D01*
X110405547Y-136818574D01*
X110513720Y-137079727D01*
X110670763Y-137314759D01*
X110870641Y-137514637D01*
X111105673Y-137671680D01*
X111366826Y-137779853D01*
X111644065Y-137835000D01*
X111926735Y-137835000D01*
X112203974Y-137779853D01*
X112465127Y-137671680D01*
X112700159Y-137514637D01*
X112900037Y-137314759D01*
X113057080Y-137079727D01*
X113165253Y-136818574D01*
X113220400Y-136541335D01*
X113220400Y-136258665D01*
X117970400Y-136258665D01*
X117970400Y-136541335D01*
X118025547Y-136818574D01*
X118133720Y-137079727D01*
X118290763Y-137314759D01*
X118490641Y-137514637D01*
X118725673Y-137671680D01*
X118986826Y-137779853D01*
X119264065Y-137835000D01*
X119546735Y-137835000D01*
X119823974Y-137779853D01*
X120085127Y-137671680D01*
X120320159Y-137514637D01*
X120520037Y-137314759D01*
X120677080Y-137079727D01*
X120785253Y-136818574D01*
X120840400Y-136541335D01*
X120840400Y-136258665D01*
X120785253Y-135981426D01*
X120677080Y-135720273D01*
X120520037Y-135485241D01*
X120320159Y-135285363D01*
X120085127Y-135128320D01*
X119823974Y-135020147D01*
X119546735Y-134965000D01*
X119264065Y-134965000D01*
X118986826Y-135020147D01*
X118725673Y-135128320D01*
X118490641Y-135285363D01*
X118290763Y-135485241D01*
X118133720Y-135720273D01*
X118025547Y-135981426D01*
X117970400Y-136258665D01*
X113220400Y-136258665D01*
X113165253Y-135981426D01*
X113057080Y-135720273D01*
X112900037Y-135485241D01*
X112700159Y-135285363D01*
X112465127Y-135128320D01*
X112203974Y-135020147D01*
X111926735Y-134965000D01*
X111644065Y-134965000D01*
X111366826Y-135020147D01*
X111105673Y-135128320D01*
X110870641Y-135285363D01*
X110670763Y-135485241D01*
X110513720Y-135720273D01*
X110405547Y-135981426D01*
X110350400Y-136258665D01*
X107535000Y-136258665D01*
X107535000Y-132238665D01*
X110275000Y-132238665D01*
X110275000Y-132521335D01*
X110330147Y-132798574D01*
X110438320Y-133059727D01*
X110595363Y-133294759D01*
X110795241Y-133494637D01*
X111030273Y-133651680D01*
X111291426Y-133759853D01*
X111568665Y-133815000D01*
X111851335Y-133815000D01*
X112128574Y-133759853D01*
X112389727Y-133651680D01*
X112624759Y-133494637D01*
X112824637Y-133294759D01*
X112980000Y-133062241D01*
X113135363Y-133294759D01*
X113335241Y-133494637D01*
X113570273Y-133651680D01*
X113831426Y-133759853D01*
X114108665Y-133815000D01*
X114391335Y-133815000D01*
X114668574Y-133759853D01*
X114929727Y-133651680D01*
X115164759Y-133494637D01*
X115364637Y-133294759D01*
X115520000Y-133062241D01*
X115675363Y-133294759D01*
X115875241Y-133494637D01*
X116110273Y-133651680D01*
X116371426Y-133759853D01*
X116648665Y-133815000D01*
X116931335Y-133815000D01*
X117208574Y-133759853D01*
X117469727Y-133651680D01*
X117704759Y-133494637D01*
X117904637Y-133294759D01*
X118060000Y-133062241D01*
X118215363Y-133294759D01*
X118415241Y-133494637D01*
X118650273Y-133651680D01*
X118911426Y-133759853D01*
X119188665Y-133815000D01*
X119471335Y-133815000D01*
X119748574Y-133759853D01*
X120009727Y-133651680D01*
X120244759Y-133494637D01*
X120444637Y-133294759D01*
X120601680Y-133059727D01*
X120709853Y-132798574D01*
X120765000Y-132521335D01*
X120765000Y-132238665D01*
X120709853Y-131961426D01*
X120601680Y-131700273D01*
X120444637Y-131465241D01*
X120244759Y-131265363D01*
X120009727Y-131108320D01*
X119748574Y-131000147D01*
X119471335Y-130945000D01*
X119188665Y-130945000D01*
X118911426Y-131000147D01*
X118650273Y-131108320D01*
X118415241Y-131265363D01*
X118215363Y-131465241D01*
X118060000Y-131697759D01*
X117904637Y-131465241D01*
X117704759Y-131265363D01*
X117469727Y-131108320D01*
X117208574Y-131000147D01*
X116931335Y-130945000D01*
X116648665Y-130945000D01*
X116371426Y-131000147D01*
X116110273Y-131108320D01*
X115875241Y-131265363D01*
X115675363Y-131465241D01*
X115520000Y-131697759D01*
X115364637Y-131465241D01*
X115164759Y-131265363D01*
X114929727Y-131108320D01*
X114668574Y-131000147D01*
X114391335Y-130945000D01*
X114108665Y-130945000D01*
X113831426Y-131000147D01*
X113570273Y-131108320D01*
X113335241Y-131265363D01*
X113135363Y-131465241D01*
X112980000Y-131697759D01*
X112824637Y-131465241D01*
X112624759Y-131265363D01*
X112389727Y-131108320D01*
X112128574Y-131000147D01*
X111851335Y-130945000D01*
X111568665Y-130945000D01*
X111291426Y-131000147D01*
X111030273Y-131108320D01*
X110795241Y-131265363D01*
X110595363Y-131465241D01*
X110438320Y-131700273D01*
X110330147Y-131961426D01*
X110275000Y-132238665D01*
X107535000Y-132238665D01*
X107535000Y-130821269D01*
X122558336Y-130821269D01*
X122617797Y-131055037D01*
X122856242Y-131165934D01*
X123111740Y-131228183D01*
X123374473Y-131239390D01*
X123634344Y-131199125D01*
X123881366Y-131108935D01*
X123982203Y-131055037D01*
X124041664Y-130821269D01*
X123300000Y-130079605D01*
X122558336Y-130821269D01*
X107535000Y-130821269D01*
X107535000Y-129974473D01*
X121960610Y-129974473D01*
X122000875Y-130234344D01*
X122091065Y-130481366D01*
X122144963Y-130582203D01*
X122378731Y-130641664D01*
X123120395Y-129900000D01*
X123479605Y-129900000D01*
X124221269Y-130641664D01*
X124455037Y-130582203D01*
X124565934Y-130343758D01*
X124628183Y-130088260D01*
X124639390Y-129825527D01*
X124599125Y-129565656D01*
X124508935Y-129318634D01*
X124455037Y-129217797D01*
X124221269Y-129158336D01*
X123479605Y-129900000D01*
X123120395Y-129900000D01*
X122378731Y-129158336D01*
X122144963Y-129217797D01*
X122034066Y-129456242D01*
X121971817Y-129711740D01*
X121960610Y-129974473D01*
X107535000Y-129974473D01*
X107535000Y-127268514D01*
X121965000Y-127268514D01*
X121965000Y-127531486D01*
X122016304Y-127789405D01*
X122116939Y-128032359D01*
X122263038Y-128251013D01*
X122448987Y-128436962D01*
X122667641Y-128583061D01*
X122830118Y-128650361D01*
X122718634Y-128691065D01*
X122617797Y-128744963D01*
X122558336Y-128978731D01*
X123300000Y-129720395D01*
X124041664Y-128978731D01*
X123982203Y-128744963D01*
X123774596Y-128648408D01*
X123932359Y-128583061D01*
X124151013Y-128436962D01*
X124336962Y-128251013D01*
X124483061Y-128032359D01*
X124583696Y-127789405D01*
X124635000Y-127531486D01*
X124635000Y-127268514D01*
X124583696Y-127010595D01*
X124483061Y-126767641D01*
X124336962Y-126548987D01*
X124151013Y-126363038D01*
X123932359Y-126216939D01*
X123689405Y-126116304D01*
X123431486Y-126065000D01*
X123168514Y-126065000D01*
X122910595Y-126116304D01*
X122667641Y-126216939D01*
X122448987Y-126363038D01*
X122263038Y-126548987D01*
X122116939Y-126767641D01*
X122016304Y-127010595D01*
X121965000Y-127268514D01*
X107535000Y-127268514D01*
X107535000Y-125109040D01*
X110318091Y-125109040D01*
X110412930Y-125373881D01*
X110557615Y-125615131D01*
X110746586Y-125823519D01*
X110972580Y-125991037D01*
X111226913Y-126111246D01*
X111360961Y-126151904D01*
X111583000Y-126029915D01*
X111583000Y-124887000D01*
X110439376Y-124887000D01*
X110318091Y-125109040D01*
X107535000Y-125109040D01*
X107535000Y-124410960D01*
X110318091Y-124410960D01*
X110439376Y-124633000D01*
X111583000Y-124633000D01*
X111583000Y-123490085D01*
X111837000Y-123490085D01*
X111837000Y-124633000D01*
X111857000Y-124633000D01*
X111857000Y-124887000D01*
X111837000Y-124887000D01*
X111837000Y-126029915D01*
X112059039Y-126151904D01*
X112193087Y-126111246D01*
X112447420Y-125991037D01*
X112673414Y-125823519D01*
X112862385Y-125615131D01*
X112973933Y-125429135D01*
X112978320Y-125439727D01*
X113135363Y-125674759D01*
X113335241Y-125874637D01*
X113570273Y-126031680D01*
X113831426Y-126139853D01*
X114108665Y-126195000D01*
X114391335Y-126195000D01*
X114668574Y-126139853D01*
X114929727Y-126031680D01*
X115164759Y-125874637D01*
X115364637Y-125674759D01*
X115520000Y-125442241D01*
X115675363Y-125674759D01*
X115875241Y-125874637D01*
X116110273Y-126031680D01*
X116371426Y-126139853D01*
X116648665Y-126195000D01*
X116931335Y-126195000D01*
X117208574Y-126139853D01*
X117469727Y-126031680D01*
X117704759Y-125874637D01*
X117903357Y-125676039D01*
X117904188Y-125684482D01*
X117940498Y-125804180D01*
X117999463Y-125914494D01*
X118078815Y-126011185D01*
X118175506Y-126090537D01*
X118285820Y-126149502D01*
X118405518Y-126185812D01*
X118530000Y-126198072D01*
X120130000Y-126198072D01*
X120254482Y-126185812D01*
X120374180Y-126149502D01*
X120484494Y-126090537D01*
X120581185Y-126011185D01*
X120660537Y-125914494D01*
X120719502Y-125804180D01*
X120755812Y-125684482D01*
X120768072Y-125560000D01*
X120768072Y-123960000D01*
X120755812Y-123835518D01*
X120719502Y-123715820D01*
X120660537Y-123605506D01*
X120581185Y-123508815D01*
X120484494Y-123429463D01*
X120374180Y-123370498D01*
X120254482Y-123334188D01*
X120130000Y-123321928D01*
X118530000Y-123321928D01*
X118405518Y-123334188D01*
X118285820Y-123370498D01*
X118175506Y-123429463D01*
X118078815Y-123508815D01*
X117999463Y-123605506D01*
X117940498Y-123715820D01*
X117904188Y-123835518D01*
X117903357Y-123843961D01*
X117704759Y-123645363D01*
X117469727Y-123488320D01*
X117208574Y-123380147D01*
X116931335Y-123325000D01*
X116648665Y-123325000D01*
X116371426Y-123380147D01*
X116110273Y-123488320D01*
X115875241Y-123645363D01*
X115675363Y-123845241D01*
X115520000Y-124077759D01*
X115364637Y-123845241D01*
X115164759Y-123645363D01*
X114929727Y-123488320D01*
X114668574Y-123380147D01*
X114391335Y-123325000D01*
X114108665Y-123325000D01*
X113831426Y-123380147D01*
X113570273Y-123488320D01*
X113335241Y-123645363D01*
X113135363Y-123845241D01*
X112978320Y-124080273D01*
X112973933Y-124090865D01*
X112862385Y-123904869D01*
X112673414Y-123696481D01*
X112447420Y-123528963D01*
X112193087Y-123408754D01*
X112059039Y-123368096D01*
X111837000Y-123490085D01*
X111583000Y-123490085D01*
X111360961Y-123368096D01*
X111226913Y-123408754D01*
X110972580Y-123528963D01*
X110746586Y-123696481D01*
X110557615Y-123904869D01*
X110412930Y-124146119D01*
X110318091Y-124410960D01*
X107535000Y-124410960D01*
X107535000Y-120978665D01*
X108565000Y-120978665D01*
X108565000Y-121261335D01*
X108620147Y-121538574D01*
X108728320Y-121799727D01*
X108885363Y-122034759D01*
X109085241Y-122234637D01*
X109320273Y-122391680D01*
X109581426Y-122499853D01*
X109858665Y-122555000D01*
X110141335Y-122555000D01*
X110418574Y-122499853D01*
X110679727Y-122391680D01*
X110914759Y-122234637D01*
X111114637Y-122034759D01*
X111271680Y-121799727D01*
X111379853Y-121538574D01*
X111435000Y-121261335D01*
X111435000Y-120978665D01*
X111865000Y-120978665D01*
X111865000Y-121261335D01*
X111920147Y-121538574D01*
X112028320Y-121799727D01*
X112185363Y-122034759D01*
X112385241Y-122234637D01*
X112620273Y-122391680D01*
X112881426Y-122499853D01*
X113158665Y-122555000D01*
X113441335Y-122555000D01*
X113718574Y-122499853D01*
X113979727Y-122391680D01*
X114214759Y-122234637D01*
X114414637Y-122034759D01*
X114571680Y-121799727D01*
X114679853Y-121538574D01*
X114735000Y-121261335D01*
X114735000Y-120978665D01*
X115165000Y-120978665D01*
X115165000Y-121261335D01*
X115220147Y-121538574D01*
X115328320Y-121799727D01*
X115485363Y-122034759D01*
X115685241Y-122234637D01*
X115920273Y-122391680D01*
X116181426Y-122499853D01*
X116458665Y-122555000D01*
X116741335Y-122555000D01*
X117018574Y-122499853D01*
X117279727Y-122391680D01*
X117514759Y-122234637D01*
X117714637Y-122034759D01*
X117871680Y-121799727D01*
X117979853Y-121538574D01*
X118035000Y-121261335D01*
X118035000Y-120978665D01*
X117979853Y-120701426D01*
X117871680Y-120440273D01*
X117714637Y-120205241D01*
X117514759Y-120005363D01*
X117279727Y-119848320D01*
X117018574Y-119740147D01*
X116741335Y-119685000D01*
X116458665Y-119685000D01*
X116181426Y-119740147D01*
X115920273Y-119848320D01*
X115685241Y-120005363D01*
X115485363Y-120205241D01*
X115328320Y-120440273D01*
X115220147Y-120701426D01*
X115165000Y-120978665D01*
X114735000Y-120978665D01*
X114679853Y-120701426D01*
X114571680Y-120440273D01*
X114414637Y-120205241D01*
X114214759Y-120005363D01*
X113979727Y-119848320D01*
X113718574Y-119740147D01*
X113441335Y-119685000D01*
X113158665Y-119685000D01*
X112881426Y-119740147D01*
X112620273Y-119848320D01*
X112385241Y-120005363D01*
X112185363Y-120205241D01*
X112028320Y-120440273D01*
X111920147Y-120701426D01*
X111865000Y-120978665D01*
X111435000Y-120978665D01*
X111379853Y-120701426D01*
X111271680Y-120440273D01*
X111114637Y-120205241D01*
X110914759Y-120005363D01*
X110679727Y-119848320D01*
X110418574Y-119740147D01*
X110141335Y-119685000D01*
X109858665Y-119685000D01*
X109581426Y-119740147D01*
X109320273Y-119848320D01*
X109085241Y-120005363D01*
X108885363Y-120205241D01*
X108728320Y-120440273D01*
X108620147Y-120701426D01*
X108565000Y-120978665D01*
X107535000Y-120978665D01*
X107535000Y-119370000D01*
X121759339Y-119370000D01*
X121781929Y-119599360D01*
X121848831Y-119819906D01*
X121947766Y-120005000D01*
X121848831Y-120190094D01*
X121781929Y-120410640D01*
X121759339Y-120640000D01*
X121781929Y-120869360D01*
X121848831Y-121089906D01*
X121947766Y-121275000D01*
X121848831Y-121460094D01*
X121781929Y-121680640D01*
X121759339Y-121910000D01*
X121781929Y-122139360D01*
X121848831Y-122359906D01*
X121957474Y-122563162D01*
X122103682Y-122741318D01*
X122281838Y-122887526D01*
X122485094Y-122996169D01*
X122705640Y-123063071D01*
X122877523Y-123080000D01*
X123722477Y-123080000D01*
X123894360Y-123063071D01*
X124114906Y-122996169D01*
X124318162Y-122887526D01*
X124496318Y-122741318D01*
X124642526Y-122563162D01*
X124751169Y-122359906D01*
X124818071Y-122139360D01*
X124840661Y-121910000D01*
X124818071Y-121680640D01*
X124751169Y-121460094D01*
X124652234Y-121275000D01*
X124751169Y-121089906D01*
X124818071Y-120869360D01*
X124840661Y-120640000D01*
X124818071Y-120410640D01*
X124751169Y-120190094D01*
X124652234Y-120005000D01*
X124751169Y-119819906D01*
X124818071Y-119599360D01*
X124840661Y-119370000D01*
X124818071Y-119140640D01*
X124757130Y-118939743D01*
X124789502Y-118879180D01*
X124825812Y-118759482D01*
X124838072Y-118635000D01*
X124838072Y-117565000D01*
X124825812Y-117440518D01*
X124789502Y-117320820D01*
X124730537Y-117210506D01*
X124651185Y-117113815D01*
X124554494Y-117034463D01*
X124444180Y-116975498D01*
X124324482Y-116939188D01*
X124200000Y-116926928D01*
X122400000Y-116926928D01*
X122275518Y-116939188D01*
X122155820Y-116975498D01*
X122045506Y-117034463D01*
X121948815Y-117113815D01*
X121869463Y-117210506D01*
X121810498Y-117320820D01*
X121774188Y-117440518D01*
X121761928Y-117565000D01*
X121761928Y-118635000D01*
X121774188Y-118759482D01*
X121810498Y-118879180D01*
X121842870Y-118939743D01*
X121781929Y-119140640D01*
X121759339Y-119370000D01*
X107535000Y-119370000D01*
X107535000Y-113358665D01*
X108565000Y-113358665D01*
X108565000Y-113641335D01*
X108620147Y-113918574D01*
X108728320Y-114179727D01*
X108885363Y-114414759D01*
X109085241Y-114614637D01*
X109320273Y-114771680D01*
X109581426Y-114879853D01*
X109858665Y-114935000D01*
X110141335Y-114935000D01*
X110418574Y-114879853D01*
X110679727Y-114771680D01*
X110914759Y-114614637D01*
X111114637Y-114414759D01*
X111271680Y-114179727D01*
X111379853Y-113918574D01*
X111435000Y-113641335D01*
X111435000Y-113358665D01*
X111865000Y-113358665D01*
X111865000Y-113641335D01*
X111920147Y-113918574D01*
X112028320Y-114179727D01*
X112185363Y-114414759D01*
X112385241Y-114614637D01*
X112620273Y-114771680D01*
X112881426Y-114879853D01*
X113158665Y-114935000D01*
X113441335Y-114935000D01*
X113718574Y-114879853D01*
X113979727Y-114771680D01*
X114214759Y-114614637D01*
X114414637Y-114414759D01*
X114571680Y-114179727D01*
X114679853Y-113918574D01*
X114735000Y-113641335D01*
X114735000Y-113358665D01*
X115165000Y-113358665D01*
X115165000Y-113641335D01*
X115220147Y-113918574D01*
X115328320Y-114179727D01*
X115485363Y-114414759D01*
X115685241Y-114614637D01*
X115920273Y-114771680D01*
X116181426Y-114879853D01*
X116458665Y-114935000D01*
X116741335Y-114935000D01*
X117018574Y-114879853D01*
X117279727Y-114771680D01*
X117514759Y-114614637D01*
X117714637Y-114414759D01*
X117871680Y-114179727D01*
X117979853Y-113918574D01*
X118035000Y-113641335D01*
X118035000Y-113358665D01*
X117979853Y-113081426D01*
X117871680Y-112820273D01*
X117714637Y-112585241D01*
X117514759Y-112385363D01*
X117279727Y-112228320D01*
X117018574Y-112120147D01*
X116741335Y-112065000D01*
X116458665Y-112065000D01*
X116181426Y-112120147D01*
X115920273Y-112228320D01*
X115685241Y-112385363D01*
X115485363Y-112585241D01*
X115328320Y-112820273D01*
X115220147Y-113081426D01*
X115165000Y-113358665D01*
X114735000Y-113358665D01*
X114679853Y-113081426D01*
X114571680Y-112820273D01*
X114414637Y-112585241D01*
X114214759Y-112385363D01*
X113979727Y-112228320D01*
X113718574Y-112120147D01*
X113441335Y-112065000D01*
X113158665Y-112065000D01*
X112881426Y-112120147D01*
X112620273Y-112228320D01*
X112385241Y-112385363D01*
X112185363Y-112585241D01*
X112028320Y-112820273D01*
X111920147Y-113081426D01*
X111865000Y-113358665D01*
X111435000Y-113358665D01*
X111379853Y-113081426D01*
X111271680Y-112820273D01*
X111114637Y-112585241D01*
X110914759Y-112385363D01*
X110679727Y-112228320D01*
X110418574Y-112120147D01*
X110141335Y-112065000D01*
X109858665Y-112065000D01*
X109581426Y-112120147D01*
X109320273Y-112228320D01*
X109085241Y-112385363D01*
X108885363Y-112585241D01*
X108728320Y-112820273D01*
X108620147Y-113081426D01*
X108565000Y-113358665D01*
X107535000Y-113358665D01*
X107535000Y-111435000D01*
X128465001Y-111435000D01*
X128465000Y-146356400D01*
G37*
G04 #@! TD.AperFunction*
M02*
