G04 #@! TF.GenerationSoftware,KiCad,Pcbnew,5.1.10-88a1d61d58~90~ubuntu20.04.1*
G04 #@! TF.CreationDate,2021-10-12T10:11:59+02:00*
G04 #@! TF.ProjectId,attiny85_I2C_RGB_LED_v2,61747469-6e79-4383-955f-4932435f5247,2.0*
G04 #@! TF.SameCoordinates,Original*
G04 #@! TF.FileFunction,Copper,L1,Top*
G04 #@! TF.FilePolarity,Positive*
%FSLAX46Y46*%
G04 Gerber Fmt 4.6, Leading zero omitted, Abs format (unit mm)*
G04 Created by KiCad (PCBNEW 5.1.10-88a1d61d58~90~ubuntu20.04.1) date 2021-10-12 10:11:59*
%MOMM*%
%LPD*%
G01*
G04 APERTURE LIST*
G04 #@! TA.AperFunction,NonConductor*
%ADD10C,0.150000*%
G04 #@! TD*
G04 #@! TA.AperFunction,SMDPad,CuDef*
%ADD11C,0.200000*%
G04 #@! TD*
G04 #@! TA.AperFunction,ComponentPad*
%ADD12O,1.600000X1.600000*%
G04 #@! TD*
G04 #@! TA.AperFunction,ComponentPad*
%ADD13C,1.600000*%
G04 #@! TD*
G04 #@! TA.AperFunction,ComponentPad*
%ADD14R,1.600000X1.600000*%
G04 #@! TD*
G04 #@! TA.AperFunction,ComponentPad*
%ADD15R,1.700000X1.700000*%
G04 #@! TD*
G04 #@! TA.AperFunction,ComponentPad*
%ADD16O,1.700000X1.700000*%
G04 #@! TD*
G04 #@! TA.AperFunction,ComponentPad*
%ADD17R,1.800000X1.070000*%
G04 #@! TD*
G04 #@! TA.AperFunction,ComponentPad*
%ADD18O,1.800000X1.070000*%
G04 #@! TD*
G04 #@! TA.AperFunction,ComponentPad*
%ADD19C,1.400000*%
G04 #@! TD*
G04 #@! TA.AperFunction,Conductor*
%ADD20C,0.500000*%
G04 #@! TD*
G04 #@! TA.AperFunction,Conductor*
%ADD21C,0.254000*%
G04 #@! TD*
G04 #@! TA.AperFunction,Conductor*
%ADD22C,0.200000*%
G04 #@! TD*
G04 APERTURE END LIST*
D10*
X108133333Y-146076190D02*
X108133333Y-145695238D01*
X108361904Y-146152380D02*
X107561904Y-145885714D01*
X108361904Y-145619047D01*
X107561904Y-145466666D02*
X107561904Y-145009523D01*
X108361904Y-145238095D02*
X107561904Y-145238095D01*
X107828571Y-144857142D02*
X107828571Y-144552380D01*
X107561904Y-144742857D02*
X108247619Y-144742857D01*
X108323809Y-144704761D01*
X108361904Y-144628571D01*
X108361904Y-144552380D01*
X108361904Y-144285714D02*
X107828571Y-144285714D01*
X107561904Y-144285714D02*
X107600000Y-144323809D01*
X107638095Y-144285714D01*
X107600000Y-144247619D01*
X107561904Y-144285714D01*
X107638095Y-144285714D01*
X107828571Y-143904761D02*
X108361904Y-143904761D01*
X107904761Y-143904761D02*
X107866666Y-143866666D01*
X107828571Y-143790476D01*
X107828571Y-143676190D01*
X107866666Y-143600000D01*
X107942857Y-143561904D01*
X108361904Y-143561904D01*
X107828571Y-143257142D02*
X108361904Y-143066666D01*
X107828571Y-142876190D02*
X108361904Y-143066666D01*
X108552380Y-143142857D01*
X108590476Y-143180952D01*
X108628571Y-143257142D01*
X107904761Y-142457142D02*
X107866666Y-142533333D01*
X107828571Y-142571428D01*
X107752380Y-142609523D01*
X107714285Y-142609523D01*
X107638095Y-142571428D01*
X107600000Y-142533333D01*
X107561904Y-142457142D01*
X107561904Y-142304761D01*
X107600000Y-142228571D01*
X107638095Y-142190476D01*
X107714285Y-142152380D01*
X107752380Y-142152380D01*
X107828571Y-142190476D01*
X107866666Y-142228571D01*
X107904761Y-142304761D01*
X107904761Y-142457142D01*
X107942857Y-142533333D01*
X107980952Y-142571428D01*
X108057142Y-142609523D01*
X108209523Y-142609523D01*
X108285714Y-142571428D01*
X108323809Y-142533333D01*
X108361904Y-142457142D01*
X108361904Y-142304761D01*
X108323809Y-142228571D01*
X108285714Y-142190476D01*
X108209523Y-142152380D01*
X108057142Y-142152380D01*
X107980952Y-142190476D01*
X107942857Y-142228571D01*
X107904761Y-142304761D01*
X107561904Y-141428571D02*
X107561904Y-141809523D01*
X107942857Y-141847619D01*
X107904761Y-141809523D01*
X107866666Y-141733333D01*
X107866666Y-141542857D01*
X107904761Y-141466666D01*
X107942857Y-141428571D01*
X108019047Y-141390476D01*
X108209523Y-141390476D01*
X108285714Y-141428571D01*
X108323809Y-141466666D01*
X108361904Y-141542857D01*
X108361904Y-141733333D01*
X108323809Y-141809523D01*
X108285714Y-141847619D01*
X108361904Y-140438095D02*
X107561904Y-140438095D01*
X107638095Y-140095238D02*
X107600000Y-140057142D01*
X107561904Y-139980952D01*
X107561904Y-139790476D01*
X107600000Y-139714285D01*
X107638095Y-139676190D01*
X107714285Y-139638095D01*
X107790476Y-139638095D01*
X107904761Y-139676190D01*
X108361904Y-140133333D01*
X108361904Y-139638095D01*
X108285714Y-138838095D02*
X108323809Y-138876190D01*
X108361904Y-138990476D01*
X108361904Y-139066666D01*
X108323809Y-139180952D01*
X108247619Y-139257142D01*
X108171428Y-139295238D01*
X108019047Y-139333333D01*
X107904761Y-139333333D01*
X107752380Y-139295238D01*
X107676190Y-139257142D01*
X107600000Y-139180952D01*
X107561904Y-139066666D01*
X107561904Y-138990476D01*
X107600000Y-138876190D01*
X107638095Y-138838095D01*
X108361904Y-137428571D02*
X107980952Y-137695238D01*
X108361904Y-137885714D02*
X107561904Y-137885714D01*
X107561904Y-137580952D01*
X107600000Y-137504761D01*
X107638095Y-137466666D01*
X107714285Y-137428571D01*
X107828571Y-137428571D01*
X107904761Y-137466666D01*
X107942857Y-137504761D01*
X107980952Y-137580952D01*
X107980952Y-137885714D01*
X107600000Y-136666666D02*
X107561904Y-136742857D01*
X107561904Y-136857142D01*
X107600000Y-136971428D01*
X107676190Y-137047619D01*
X107752380Y-137085714D01*
X107904761Y-137123809D01*
X108019047Y-137123809D01*
X108171428Y-137085714D01*
X108247619Y-137047619D01*
X108323809Y-136971428D01*
X108361904Y-136857142D01*
X108361904Y-136780952D01*
X108323809Y-136666666D01*
X108285714Y-136628571D01*
X108019047Y-136628571D01*
X108019047Y-136780952D01*
X107942857Y-136019047D02*
X107980952Y-135904761D01*
X108019047Y-135866666D01*
X108095238Y-135828571D01*
X108209523Y-135828571D01*
X108285714Y-135866666D01*
X108323809Y-135904761D01*
X108361904Y-135980952D01*
X108361904Y-136285714D01*
X107561904Y-136285714D01*
X107561904Y-136019047D01*
X107600000Y-135942857D01*
X107638095Y-135904761D01*
X107714285Y-135866666D01*
X107790476Y-135866666D01*
X107866666Y-135904761D01*
X107904761Y-135942857D01*
X107942857Y-136019047D01*
X107942857Y-136285714D01*
X108361904Y-134495238D02*
X108361904Y-134876190D01*
X107561904Y-134876190D01*
X107942857Y-134228571D02*
X107942857Y-133961904D01*
X108361904Y-133847619D02*
X108361904Y-134228571D01*
X107561904Y-134228571D01*
X107561904Y-133847619D01*
X108361904Y-133504761D02*
X107561904Y-133504761D01*
X107561904Y-133314285D01*
X107600000Y-133200000D01*
X107676190Y-133123809D01*
X107752380Y-133085714D01*
X107904761Y-133047619D01*
X108019047Y-133047619D01*
X108171428Y-133085714D01*
X108247619Y-133123809D01*
X108323809Y-133200000D01*
X108361904Y-133314285D01*
X108361904Y-133504761D01*
X107828571Y-132171428D02*
X108361904Y-131980952D01*
X107828571Y-131790476D01*
X107638095Y-131523809D02*
X107600000Y-131485714D01*
X107561904Y-131409523D01*
X107561904Y-131219047D01*
X107600000Y-131142857D01*
X107638095Y-131104761D01*
X107714285Y-131066666D01*
X107790476Y-131066666D01*
X107904761Y-131104761D01*
X108361904Y-131561904D01*
X108361904Y-131066666D01*
X108285714Y-130723809D02*
X108323809Y-130685714D01*
X108361904Y-130723809D01*
X108323809Y-130761904D01*
X108285714Y-130723809D01*
X108361904Y-130723809D01*
X107561904Y-130190476D02*
X107561904Y-130114285D01*
X107600000Y-130038095D01*
X107638095Y-130000000D01*
X107714285Y-129961904D01*
X107866666Y-129923809D01*
X108057142Y-129923809D01*
X108209523Y-129961904D01*
X108285714Y-130000000D01*
X108323809Y-130038095D01*
X108361904Y-130114285D01*
X108361904Y-130190476D01*
X108323809Y-130266666D01*
X108285714Y-130304761D01*
X108209523Y-130342857D01*
X108057142Y-130380952D01*
X107866666Y-130380952D01*
X107714285Y-130342857D01*
X107638095Y-130304761D01*
X107600000Y-130266666D01*
X107561904Y-130190476D01*
X128061904Y-145790476D02*
X127261904Y-145790476D01*
X127261904Y-145600000D01*
X127300000Y-145485714D01*
X127376190Y-145409523D01*
X127452380Y-145371428D01*
X127604761Y-145333333D01*
X127719047Y-145333333D01*
X127871428Y-145371428D01*
X127947619Y-145409523D01*
X128023809Y-145485714D01*
X128061904Y-145600000D01*
X128061904Y-145790476D01*
X128023809Y-144685714D02*
X128061904Y-144761904D01*
X128061904Y-144914285D01*
X128023809Y-144990476D01*
X127947619Y-145028571D01*
X127642857Y-145028571D01*
X127566666Y-144990476D01*
X127528571Y-144914285D01*
X127528571Y-144761904D01*
X127566666Y-144685714D01*
X127642857Y-144647619D01*
X127719047Y-144647619D01*
X127795238Y-145028571D01*
X128023809Y-144342857D02*
X128061904Y-144266666D01*
X128061904Y-144114285D01*
X128023809Y-144038095D01*
X127947619Y-144000000D01*
X127909523Y-144000000D01*
X127833333Y-144038095D01*
X127795238Y-144114285D01*
X127795238Y-144228571D01*
X127757142Y-144304761D01*
X127680952Y-144342857D01*
X127642857Y-144342857D01*
X127566666Y-144304761D01*
X127528571Y-144228571D01*
X127528571Y-144114285D01*
X127566666Y-144038095D01*
X128061904Y-143657142D02*
X127528571Y-143657142D01*
X127261904Y-143657142D02*
X127300000Y-143695238D01*
X127338095Y-143657142D01*
X127300000Y-143619047D01*
X127261904Y-143657142D01*
X127338095Y-143657142D01*
X127528571Y-142933333D02*
X128176190Y-142933333D01*
X128252380Y-142971428D01*
X128290476Y-143009523D01*
X128328571Y-143085714D01*
X128328571Y-143200000D01*
X128290476Y-143276190D01*
X128023809Y-142933333D02*
X128061904Y-143009523D01*
X128061904Y-143161904D01*
X128023809Y-143238095D01*
X127985714Y-143276190D01*
X127909523Y-143314285D01*
X127680952Y-143314285D01*
X127604761Y-143276190D01*
X127566666Y-143238095D01*
X127528571Y-143161904D01*
X127528571Y-143009523D01*
X127566666Y-142933333D01*
X127528571Y-142552380D02*
X128061904Y-142552380D01*
X127604761Y-142552380D02*
X127566666Y-142514285D01*
X127528571Y-142438095D01*
X127528571Y-142323809D01*
X127566666Y-142247619D01*
X127642857Y-142209523D01*
X128061904Y-142209523D01*
X128023809Y-141523809D02*
X128061904Y-141600000D01*
X128061904Y-141752380D01*
X128023809Y-141828571D01*
X127947619Y-141866666D01*
X127642857Y-141866666D01*
X127566666Y-141828571D01*
X127528571Y-141752380D01*
X127528571Y-141600000D01*
X127566666Y-141523809D01*
X127642857Y-141485714D01*
X127719047Y-141485714D01*
X127795238Y-141866666D01*
X128061904Y-140800000D02*
X127261904Y-140800000D01*
X128023809Y-140800000D02*
X128061904Y-140876190D01*
X128061904Y-141028571D01*
X128023809Y-141104761D01*
X127985714Y-141142857D01*
X127909523Y-141180952D01*
X127680952Y-141180952D01*
X127604761Y-141142857D01*
X127566666Y-141104761D01*
X127528571Y-141028571D01*
X127528571Y-140876190D01*
X127566666Y-140800000D01*
X128061904Y-139809523D02*
X127261904Y-139809523D01*
X127566666Y-139809523D02*
X127528571Y-139733333D01*
X127528571Y-139580952D01*
X127566666Y-139504761D01*
X127604761Y-139466666D01*
X127680952Y-139428571D01*
X127909523Y-139428571D01*
X127985714Y-139466666D01*
X128023809Y-139504761D01*
X128061904Y-139580952D01*
X128061904Y-139733333D01*
X128023809Y-139809523D01*
X127528571Y-139161904D02*
X128061904Y-138971428D01*
X127528571Y-138780952D02*
X128061904Y-138971428D01*
X128252380Y-139047619D01*
X128290476Y-139085714D01*
X128328571Y-139161904D01*
X128061904Y-137409523D02*
X127680952Y-137676190D01*
X128061904Y-137866666D02*
X127261904Y-137866666D01*
X127261904Y-137561904D01*
X127300000Y-137485714D01*
X127338095Y-137447619D01*
X127414285Y-137409523D01*
X127528571Y-137409523D01*
X127604761Y-137447619D01*
X127642857Y-137485714D01*
X127680952Y-137561904D01*
X127680952Y-137866666D01*
X128061904Y-136952380D02*
X128023809Y-137028571D01*
X127985714Y-137066666D01*
X127909523Y-137104761D01*
X127680952Y-137104761D01*
X127604761Y-137066666D01*
X127566666Y-137028571D01*
X127528571Y-136952380D01*
X127528571Y-136838095D01*
X127566666Y-136761904D01*
X127604761Y-136723809D01*
X127680952Y-136685714D01*
X127909523Y-136685714D01*
X127985714Y-136723809D01*
X128023809Y-136761904D01*
X128061904Y-136838095D01*
X128061904Y-136952380D01*
X128061904Y-136342857D02*
X127261904Y-136342857D01*
X127566666Y-136342857D02*
X127528571Y-136266666D01*
X127528571Y-136114285D01*
X127566666Y-136038095D01*
X127604761Y-136000000D01*
X127680952Y-135961904D01*
X127909523Y-135961904D01*
X127985714Y-136000000D01*
X128023809Y-136038095D01*
X128061904Y-136114285D01*
X128061904Y-136266666D01*
X128023809Y-136342857D01*
X128023809Y-135314285D02*
X128061904Y-135390476D01*
X128061904Y-135542857D01*
X128023809Y-135619047D01*
X127947619Y-135657142D01*
X127642857Y-135657142D01*
X127566666Y-135619047D01*
X127528571Y-135542857D01*
X127528571Y-135390476D01*
X127566666Y-135314285D01*
X127642857Y-135276190D01*
X127719047Y-135276190D01*
X127795238Y-135657142D01*
X128061904Y-134933333D02*
X127528571Y-134933333D01*
X127680952Y-134933333D02*
X127604761Y-134895238D01*
X127566666Y-134857142D01*
X127528571Y-134780952D01*
X127528571Y-134704761D01*
X127528571Y-134552380D02*
X127528571Y-134247619D01*
X127261904Y-134438095D02*
X127947619Y-134438095D01*
X128023809Y-134400000D01*
X128061904Y-134323809D01*
X128061904Y-134247619D01*
X128023809Y-133409523D02*
X128061904Y-133295238D01*
X128061904Y-133104761D01*
X128023809Y-133028571D01*
X127985714Y-132990476D01*
X127909523Y-132952380D01*
X127833333Y-132952380D01*
X127757142Y-132990476D01*
X127719047Y-133028571D01*
X127680952Y-133104761D01*
X127642857Y-133257142D01*
X127604761Y-133333333D01*
X127566666Y-133371428D01*
X127490476Y-133409523D01*
X127414285Y-133409523D01*
X127338095Y-133371428D01*
X127300000Y-133333333D01*
X127261904Y-133257142D01*
X127261904Y-133066666D01*
X127300000Y-132952380D01*
X128023809Y-132304761D02*
X128061904Y-132380952D01*
X128061904Y-132533333D01*
X128023809Y-132609523D01*
X127947619Y-132647619D01*
X127642857Y-132647619D01*
X127566666Y-132609523D01*
X127528571Y-132533333D01*
X127528571Y-132380952D01*
X127566666Y-132304761D01*
X127642857Y-132266666D01*
X127719047Y-132266666D01*
X127795238Y-132647619D01*
X128061904Y-131580952D02*
X127261904Y-131580952D01*
X128023809Y-131580952D02*
X128061904Y-131657142D01*
X128061904Y-131809523D01*
X128023809Y-131885714D01*
X127985714Y-131923809D01*
X127909523Y-131961904D01*
X127680952Y-131961904D01*
X127604761Y-131923809D01*
X127566666Y-131885714D01*
X127528571Y-131809523D01*
X127528571Y-131657142D01*
X127566666Y-131580952D01*
X128061904Y-130857142D02*
X127642857Y-130857142D01*
X127566666Y-130895238D01*
X127528571Y-130971428D01*
X127528571Y-131123809D01*
X127566666Y-131200000D01*
X128023809Y-130857142D02*
X128061904Y-130933333D01*
X128061904Y-131123809D01*
X128023809Y-131200000D01*
X127947619Y-131238095D01*
X127871428Y-131238095D01*
X127795238Y-131200000D01*
X127757142Y-131123809D01*
X127757142Y-130933333D01*
X127719047Y-130857142D01*
X128061904Y-130476190D02*
X127261904Y-130476190D01*
X127757142Y-130400000D02*
X128061904Y-130171428D01*
X127528571Y-130171428D02*
X127833333Y-130476190D01*
G04 #@! TA.AperFunction,SMDPad,CuDef*
D11*
G36*
X121346200Y-114490598D02*
G01*
X121321666Y-114490598D01*
X121272835Y-114485788D01*
X121224710Y-114476216D01*
X121177755Y-114461972D01*
X121132422Y-114443195D01*
X121089149Y-114420064D01*
X121048350Y-114392804D01*
X121010421Y-114361676D01*
X120975724Y-114326979D01*
X120944596Y-114289050D01*
X120917336Y-114248251D01*
X120894205Y-114204978D01*
X120875428Y-114159645D01*
X120861184Y-114112690D01*
X120851612Y-114064565D01*
X120846802Y-114015734D01*
X120846802Y-113991200D01*
X120846200Y-113991200D01*
X120846200Y-113491200D01*
X120846802Y-113491200D01*
X120846802Y-113466666D01*
X120851612Y-113417835D01*
X120861184Y-113369710D01*
X120875428Y-113322755D01*
X120894205Y-113277422D01*
X120917336Y-113234149D01*
X120944596Y-113193350D01*
X120975724Y-113155421D01*
X121010421Y-113120724D01*
X121048350Y-113089596D01*
X121089149Y-113062336D01*
X121132422Y-113039205D01*
X121177755Y-113020428D01*
X121224710Y-113006184D01*
X121272835Y-112996612D01*
X121321666Y-112991802D01*
X121346200Y-112991802D01*
X121346200Y-112991200D01*
X121846200Y-112991200D01*
X121846200Y-114491200D01*
X121346200Y-114491200D01*
X121346200Y-114490598D01*
G37*
G04 #@! TD.AperFunction*
G04 #@! TA.AperFunction,SMDPad,CuDef*
G36*
X122146200Y-112991200D02*
G01*
X122646200Y-112991200D01*
X122646200Y-112991802D01*
X122670734Y-112991802D01*
X122719565Y-112996612D01*
X122767690Y-113006184D01*
X122814645Y-113020428D01*
X122859978Y-113039205D01*
X122903251Y-113062336D01*
X122944050Y-113089596D01*
X122981979Y-113120724D01*
X123016676Y-113155421D01*
X123047804Y-113193350D01*
X123075064Y-113234149D01*
X123098195Y-113277422D01*
X123116972Y-113322755D01*
X123131216Y-113369710D01*
X123140788Y-113417835D01*
X123145598Y-113466666D01*
X123145598Y-113491200D01*
X123146200Y-113491200D01*
X123146200Y-113991200D01*
X123145598Y-113991200D01*
X123145598Y-114015734D01*
X123140788Y-114064565D01*
X123131216Y-114112690D01*
X123116972Y-114159645D01*
X123098195Y-114204978D01*
X123075064Y-114248251D01*
X123047804Y-114289050D01*
X123016676Y-114326979D01*
X122981979Y-114361676D01*
X122944050Y-114392804D01*
X122903251Y-114420064D01*
X122859978Y-114443195D01*
X122814645Y-114461972D01*
X122767690Y-114476216D01*
X122719565Y-114485788D01*
X122670734Y-114490598D01*
X122646200Y-114490598D01*
X122646200Y-114491200D01*
X122146200Y-114491200D01*
X122146200Y-112991200D01*
G37*
G04 #@! TD.AperFunction*
G04 #@! TA.AperFunction,SMDPad,CuDef*
G36*
X125484000Y-112991200D02*
G01*
X125984000Y-112991200D01*
X125984000Y-112991802D01*
X126008534Y-112991802D01*
X126057365Y-112996612D01*
X126105490Y-113006184D01*
X126152445Y-113020428D01*
X126197778Y-113039205D01*
X126241051Y-113062336D01*
X126281850Y-113089596D01*
X126319779Y-113120724D01*
X126354476Y-113155421D01*
X126385604Y-113193350D01*
X126412864Y-113234149D01*
X126435995Y-113277422D01*
X126454772Y-113322755D01*
X126469016Y-113369710D01*
X126478588Y-113417835D01*
X126483398Y-113466666D01*
X126483398Y-113491200D01*
X126484000Y-113491200D01*
X126484000Y-113991200D01*
X126483398Y-113991200D01*
X126483398Y-114015734D01*
X126478588Y-114064565D01*
X126469016Y-114112690D01*
X126454772Y-114159645D01*
X126435995Y-114204978D01*
X126412864Y-114248251D01*
X126385604Y-114289050D01*
X126354476Y-114326979D01*
X126319779Y-114361676D01*
X126281850Y-114392804D01*
X126241051Y-114420064D01*
X126197778Y-114443195D01*
X126152445Y-114461972D01*
X126105490Y-114476216D01*
X126057365Y-114485788D01*
X126008534Y-114490598D01*
X125984000Y-114490598D01*
X125984000Y-114491200D01*
X125484000Y-114491200D01*
X125484000Y-112991200D01*
G37*
G04 #@! TD.AperFunction*
G04 #@! TA.AperFunction,SMDPad,CuDef*
G36*
X124684000Y-114490598D02*
G01*
X124659466Y-114490598D01*
X124610635Y-114485788D01*
X124562510Y-114476216D01*
X124515555Y-114461972D01*
X124470222Y-114443195D01*
X124426949Y-114420064D01*
X124386150Y-114392804D01*
X124348221Y-114361676D01*
X124313524Y-114326979D01*
X124282396Y-114289050D01*
X124255136Y-114248251D01*
X124232005Y-114204978D01*
X124213228Y-114159645D01*
X124198984Y-114112690D01*
X124189412Y-114064565D01*
X124184602Y-114015734D01*
X124184602Y-113991200D01*
X124184000Y-113991200D01*
X124184000Y-113491200D01*
X124184602Y-113491200D01*
X124184602Y-113466666D01*
X124189412Y-113417835D01*
X124198984Y-113369710D01*
X124213228Y-113322755D01*
X124232005Y-113277422D01*
X124255136Y-113234149D01*
X124282396Y-113193350D01*
X124313524Y-113155421D01*
X124348221Y-113120724D01*
X124386150Y-113089596D01*
X124426949Y-113062336D01*
X124470222Y-113039205D01*
X124515555Y-113020428D01*
X124562510Y-113006184D01*
X124610635Y-112996612D01*
X124659466Y-112991802D01*
X124684000Y-112991802D01*
X124684000Y-112991200D01*
X125184000Y-112991200D01*
X125184000Y-114491200D01*
X124684000Y-114491200D01*
X124684000Y-114490598D01*
G37*
G04 #@! TD.AperFunction*
D12*
X119405400Y-139700000D03*
D13*
X111785400Y-139700000D03*
X111785400Y-136400000D03*
D12*
X119405400Y-136400000D03*
D14*
X119330000Y-124760000D03*
D12*
X111710000Y-132380000D03*
X116790000Y-124760000D03*
X114250000Y-132380000D03*
X114250000Y-124760000D03*
X116790000Y-132380000D03*
X111710000Y-124760000D03*
X119330000Y-132380000D03*
D15*
X121825400Y-145626400D03*
D16*
X119285400Y-145626400D03*
X116745400Y-145626400D03*
X114205400Y-145626400D03*
D17*
X123300000Y-118100000D03*
D18*
X123300000Y-119370000D03*
X123300000Y-120640000D03*
X123300000Y-121910000D03*
D19*
X123300000Y-127400000D03*
X123300000Y-129900000D03*
D13*
X110000000Y-113500000D03*
D12*
X110000000Y-121120000D03*
X116600000Y-121120000D03*
D13*
X116600000Y-113500000D03*
X113300000Y-113500000D03*
D12*
X113300000Y-121120000D03*
D20*
X123300000Y-118100000D02*
X120700000Y-118100000D01*
X120700000Y-118100000D02*
X118950001Y-116350001D01*
X118186200Y-115586200D02*
X120700000Y-118100000D01*
X111450001Y-112049999D02*
X110000000Y-113500000D01*
X117296001Y-112049999D02*
X111450001Y-112049999D01*
X118051100Y-112805098D02*
X117296001Y-112049999D01*
X118051100Y-115451100D02*
X118051100Y-112805098D01*
X120700000Y-118100000D02*
X118051100Y-115451100D01*
X114250000Y-122070000D02*
X113300000Y-121120000D01*
X114250000Y-124760000D02*
X114250000Y-122070000D01*
X116790000Y-121310000D02*
X116600000Y-121120000D01*
X116790000Y-124760000D02*
X116790000Y-121310000D01*
X110000000Y-128130000D02*
X110000000Y-121120000D01*
X114250000Y-132380000D02*
X110000000Y-128130000D01*
X116600000Y-115272806D02*
X116600000Y-114631370D01*
X116600000Y-114631370D02*
X116600000Y-113500000D01*
X121967194Y-120640000D02*
X116600000Y-115272806D01*
X123300000Y-120640000D02*
X121967194Y-120640000D01*
X121710000Y-121910000D02*
X113300000Y-113500000D01*
X123300000Y-121910000D02*
X121710000Y-121910000D01*
X111780000Y-132450000D02*
X111710000Y-132380000D01*
X111785400Y-132455400D02*
X111710000Y-132380000D01*
X111785400Y-136400000D02*
X111785400Y-132455400D01*
X110335399Y-137850001D02*
X110985401Y-137199999D01*
X110335399Y-140489205D02*
X110335399Y-137850001D01*
X114205400Y-144359206D02*
X110335399Y-140489205D01*
X110985401Y-137199999D02*
X111785400Y-136400000D01*
X114205400Y-145626400D02*
X114205400Y-144359206D01*
X116720000Y-132450000D02*
X116790000Y-132380000D01*
X111785400Y-140666400D02*
X111785400Y-139700000D01*
X116745400Y-145626400D02*
X111785400Y-140666400D01*
X111785400Y-139700000D02*
X113690400Y-137795000D01*
X113690400Y-135479600D02*
X116790000Y-132380000D01*
X113690400Y-137795000D02*
X113690400Y-135479600D01*
X119355400Y-145556400D02*
X119425400Y-145626400D01*
X121346200Y-112893608D02*
X121346200Y-113741200D01*
X121876954Y-112341190D02*
X121346200Y-112871944D01*
X121346200Y-112871944D02*
X121346200Y-112893608D01*
X126456946Y-112341190D02*
X121876954Y-112341190D01*
X127134010Y-113018254D02*
X126456946Y-112341190D01*
X127134010Y-126065990D02*
X127134010Y-113018254D01*
X123300000Y-129900000D02*
X127134010Y-126065990D01*
X119530000Y-132580000D02*
X119330000Y-132380000D01*
X122600001Y-128099999D02*
X123300000Y-127400000D01*
X120129999Y-131580001D02*
X120129999Y-130570001D01*
X120129999Y-130570001D02*
X122600001Y-128099999D01*
X119330000Y-132380000D02*
X120129999Y-131580001D01*
X121825400Y-142120000D02*
X119405400Y-139700000D01*
X121825400Y-145626400D02*
X121825400Y-142120000D01*
X119405400Y-139700000D02*
X119405400Y-136400000D01*
X119405400Y-132455400D02*
X119330000Y-132380000D01*
X119405400Y-136400000D02*
X119405400Y-132455400D01*
X125984000Y-124716000D02*
X125984000Y-113741200D01*
X123300000Y-127400000D02*
X125984000Y-124716000D01*
X124850001Y-116315601D02*
X123647200Y-115112800D01*
X123647200Y-114778000D02*
X124684000Y-113741200D01*
X123647200Y-115112800D02*
X123647200Y-114778000D01*
X123647200Y-114742200D02*
X122646200Y-113741200D01*
X123647200Y-115112800D02*
X123647200Y-114742200D01*
X124850001Y-119219999D02*
X124850001Y-116315601D01*
X124700000Y-119370000D02*
X124850001Y-119219999D01*
X123300000Y-119370000D02*
X124700000Y-119370000D01*
D21*
X128465000Y-129309047D02*
X126451500Y-129309047D01*
X126451500Y-146356400D01*
X123313472Y-146356400D01*
X123313472Y-144776400D01*
X123301212Y-144651918D01*
X123264902Y-144532220D01*
X123205937Y-144421906D01*
X123126585Y-144325215D01*
X123029894Y-144245863D01*
X122919580Y-144186898D01*
X122799882Y-144150588D01*
X122710400Y-144141775D01*
X122710400Y-142163469D01*
X122714681Y-142120000D01*
X122710400Y-142076531D01*
X122710400Y-142076523D01*
X122697595Y-141946510D01*
X122646989Y-141779687D01*
X122564811Y-141625941D01*
X122481932Y-141524953D01*
X122481930Y-141524951D01*
X122454217Y-141491183D01*
X122420449Y-141463470D01*
X120833417Y-139876439D01*
X120840400Y-139841335D01*
X120840400Y-139558665D01*
X120785253Y-139281426D01*
X120677080Y-139020273D01*
X120520037Y-138785241D01*
X120320159Y-138585363D01*
X120290400Y-138565479D01*
X120290400Y-137534521D01*
X120320159Y-137514637D01*
X120520037Y-137314759D01*
X120677080Y-137079727D01*
X120785253Y-136818574D01*
X120840400Y-136541335D01*
X120840400Y-136258665D01*
X120785253Y-135981426D01*
X120677080Y-135720273D01*
X120520037Y-135485241D01*
X120320159Y-135285363D01*
X120290400Y-135265479D01*
X120290400Y-133448996D01*
X120444637Y-133294759D01*
X120601680Y-133059727D01*
X120709853Y-132798574D01*
X120765000Y-132521335D01*
X120765000Y-132238665D01*
X120759015Y-132208576D01*
X120869410Y-132074060D01*
X120951588Y-131920314D01*
X121002194Y-131753491D01*
X121014999Y-131623478D01*
X121014999Y-131623468D01*
X121019280Y-131580002D01*
X121014999Y-131536536D01*
X121014999Y-130936579D01*
X121130309Y-130821269D01*
X122558336Y-130821269D01*
X122617797Y-131055037D01*
X122856242Y-131165934D01*
X123111740Y-131228183D01*
X123374473Y-131239390D01*
X123634344Y-131199125D01*
X123881366Y-131108935D01*
X123982203Y-131055037D01*
X124041664Y-130821269D01*
X123300000Y-130079605D01*
X122558336Y-130821269D01*
X121130309Y-130821269D01*
X121962823Y-129988756D01*
X122000875Y-130234344D01*
X122091065Y-130481366D01*
X122144963Y-130582203D01*
X122378731Y-130641664D01*
X123120395Y-129900000D01*
X123479605Y-129900000D01*
X124221269Y-130641664D01*
X124455037Y-130582203D01*
X124565934Y-130343758D01*
X124628183Y-130088260D01*
X124639390Y-129825527D01*
X124599125Y-129565656D01*
X124508935Y-129318634D01*
X124455037Y-129217797D01*
X124221269Y-129158336D01*
X123479605Y-129900000D01*
X123120395Y-129900000D01*
X123106253Y-129885858D01*
X123285858Y-129706253D01*
X123300000Y-129720395D01*
X124041664Y-128978731D01*
X123982203Y-128744963D01*
X123774596Y-128648408D01*
X123932359Y-128583061D01*
X124151013Y-128436962D01*
X124336962Y-128251013D01*
X124483061Y-128032359D01*
X124583696Y-127789405D01*
X124635000Y-127531486D01*
X124635000Y-127316578D01*
X126579050Y-125372529D01*
X126612817Y-125344817D01*
X126723411Y-125210059D01*
X126805589Y-125056313D01*
X126856195Y-124889490D01*
X126869000Y-124759477D01*
X126869000Y-124759467D01*
X126873281Y-124716001D01*
X126869000Y-124672535D01*
X126869000Y-114701934D01*
X126901042Y-114662891D01*
X126955498Y-114581392D01*
X127014464Y-114471075D01*
X127051973Y-114380519D01*
X127088282Y-114260823D01*
X127107404Y-114164690D01*
X127119664Y-114040209D01*
X127119664Y-114015650D01*
X127122072Y-113991200D01*
X127122072Y-113491200D01*
X127119664Y-113466750D01*
X127119664Y-113442191D01*
X127107404Y-113317710D01*
X127088282Y-113221577D01*
X127051973Y-113101881D01*
X127014464Y-113011325D01*
X126955498Y-112901008D01*
X126901042Y-112819509D01*
X126821690Y-112722818D01*
X126752382Y-112653510D01*
X126655691Y-112574158D01*
X126574192Y-112519702D01*
X126463875Y-112460736D01*
X126373319Y-112423227D01*
X126253623Y-112386918D01*
X126157490Y-112367796D01*
X126033009Y-112355536D01*
X126008450Y-112355536D01*
X125984000Y-112353128D01*
X125484000Y-112353128D01*
X125359518Y-112365388D01*
X125334000Y-112373129D01*
X125308482Y-112365388D01*
X125184000Y-112353128D01*
X124684000Y-112353128D01*
X124659550Y-112355536D01*
X124634991Y-112355536D01*
X124510510Y-112367796D01*
X124414377Y-112386918D01*
X124294681Y-112423227D01*
X124204125Y-112460736D01*
X124093808Y-112519702D01*
X124012309Y-112574158D01*
X123915618Y-112653510D01*
X123846310Y-112722818D01*
X123766958Y-112819509D01*
X123712502Y-112901008D01*
X123665100Y-112989690D01*
X123617698Y-112901008D01*
X123563242Y-112819509D01*
X123483890Y-112722818D01*
X123414582Y-112653510D01*
X123317891Y-112574158D01*
X123236392Y-112519702D01*
X123126075Y-112460736D01*
X123035519Y-112423227D01*
X122915823Y-112386918D01*
X122819690Y-112367796D01*
X122695209Y-112355536D01*
X122670650Y-112355536D01*
X122646200Y-112353128D01*
X122146200Y-112353128D01*
X122021718Y-112365388D01*
X121996200Y-112373129D01*
X121970682Y-112365388D01*
X121846200Y-112353128D01*
X121346200Y-112353128D01*
X121321750Y-112355536D01*
X121297191Y-112355536D01*
X121172710Y-112367796D01*
X121076577Y-112386918D01*
X120956881Y-112423227D01*
X120866325Y-112460736D01*
X120756008Y-112519702D01*
X120674509Y-112574158D01*
X120577818Y-112653510D01*
X120508510Y-112722818D01*
X120429158Y-112819509D01*
X120374702Y-112901008D01*
X120315736Y-113011325D01*
X120278227Y-113101881D01*
X120241918Y-113221577D01*
X120222796Y-113317710D01*
X120210536Y-113442191D01*
X120210536Y-113466750D01*
X120208128Y-113491200D01*
X120208128Y-113991200D01*
X120210536Y-114015650D01*
X120210536Y-114040209D01*
X120222796Y-114164690D01*
X120241918Y-114260823D01*
X120278227Y-114380519D01*
X120315736Y-114471075D01*
X120374702Y-114581392D01*
X120429158Y-114662891D01*
X120508510Y-114759582D01*
X120577818Y-114828890D01*
X120674509Y-114908242D01*
X120756008Y-114962698D01*
X120866325Y-115021664D01*
X120956881Y-115059173D01*
X121076577Y-115095482D01*
X121172710Y-115114604D01*
X121297191Y-115126864D01*
X121321750Y-115126864D01*
X121346200Y-115129272D01*
X121846200Y-115129272D01*
X121970682Y-115117012D01*
X121996200Y-115109271D01*
X122021718Y-115117012D01*
X122146200Y-115129272D01*
X122646200Y-115129272D01*
X122670650Y-115126864D01*
X122695209Y-115126864D01*
X122758688Y-115120612D01*
X122762200Y-115156269D01*
X122762200Y-115156276D01*
X122775005Y-115286289D01*
X122825611Y-115453112D01*
X122907789Y-115606858D01*
X123018383Y-115741617D01*
X123052156Y-115769334D01*
X123965002Y-116682181D01*
X123965002Y-116926928D01*
X122400000Y-116926928D01*
X122275518Y-116939188D01*
X122155820Y-116975498D01*
X122045506Y-117034463D01*
X121948815Y-117113815D01*
X121869463Y-117210506D01*
X121867061Y-117215000D01*
X121066579Y-117215000D01*
X120123703Y-116272124D01*
X118936100Y-115084522D01*
X118936100Y-112848563D01*
X118940381Y-112805097D01*
X118936100Y-112761631D01*
X118936100Y-112761621D01*
X118923295Y-112631608D01*
X118872689Y-112464785D01*
X118790511Y-112311039D01*
X118679917Y-112176281D01*
X118646149Y-112148568D01*
X117952535Y-111454955D01*
X117936158Y-111435000D01*
X128465001Y-111435000D01*
X128465000Y-129309047D01*
G04 #@! TA.AperFunction,Conductor*
D22*
G36*
X128465000Y-129309047D02*
G01*
X126451500Y-129309047D01*
X126451500Y-146356400D01*
X123313472Y-146356400D01*
X123313472Y-144776400D01*
X123301212Y-144651918D01*
X123264902Y-144532220D01*
X123205937Y-144421906D01*
X123126585Y-144325215D01*
X123029894Y-144245863D01*
X122919580Y-144186898D01*
X122799882Y-144150588D01*
X122710400Y-144141775D01*
X122710400Y-142163469D01*
X122714681Y-142120000D01*
X122710400Y-142076531D01*
X122710400Y-142076523D01*
X122697595Y-141946510D01*
X122646989Y-141779687D01*
X122564811Y-141625941D01*
X122481932Y-141524953D01*
X122481930Y-141524951D01*
X122454217Y-141491183D01*
X122420449Y-141463470D01*
X120833417Y-139876439D01*
X120840400Y-139841335D01*
X120840400Y-139558665D01*
X120785253Y-139281426D01*
X120677080Y-139020273D01*
X120520037Y-138785241D01*
X120320159Y-138585363D01*
X120290400Y-138565479D01*
X120290400Y-137534521D01*
X120320159Y-137514637D01*
X120520037Y-137314759D01*
X120677080Y-137079727D01*
X120785253Y-136818574D01*
X120840400Y-136541335D01*
X120840400Y-136258665D01*
X120785253Y-135981426D01*
X120677080Y-135720273D01*
X120520037Y-135485241D01*
X120320159Y-135285363D01*
X120290400Y-135265479D01*
X120290400Y-133448996D01*
X120444637Y-133294759D01*
X120601680Y-133059727D01*
X120709853Y-132798574D01*
X120765000Y-132521335D01*
X120765000Y-132238665D01*
X120759015Y-132208576D01*
X120869410Y-132074060D01*
X120951588Y-131920314D01*
X121002194Y-131753491D01*
X121014999Y-131623478D01*
X121014999Y-131623468D01*
X121019280Y-131580002D01*
X121014999Y-131536536D01*
X121014999Y-130936579D01*
X121130309Y-130821269D01*
X122558336Y-130821269D01*
X122617797Y-131055037D01*
X122856242Y-131165934D01*
X123111740Y-131228183D01*
X123374473Y-131239390D01*
X123634344Y-131199125D01*
X123881366Y-131108935D01*
X123982203Y-131055037D01*
X124041664Y-130821269D01*
X123300000Y-130079605D01*
X122558336Y-130821269D01*
X121130309Y-130821269D01*
X121962823Y-129988756D01*
X122000875Y-130234344D01*
X122091065Y-130481366D01*
X122144963Y-130582203D01*
X122378731Y-130641664D01*
X123120395Y-129900000D01*
X123479605Y-129900000D01*
X124221269Y-130641664D01*
X124455037Y-130582203D01*
X124565934Y-130343758D01*
X124628183Y-130088260D01*
X124639390Y-129825527D01*
X124599125Y-129565656D01*
X124508935Y-129318634D01*
X124455037Y-129217797D01*
X124221269Y-129158336D01*
X123479605Y-129900000D01*
X123120395Y-129900000D01*
X123106253Y-129885858D01*
X123285858Y-129706253D01*
X123300000Y-129720395D01*
X124041664Y-128978731D01*
X123982203Y-128744963D01*
X123774596Y-128648408D01*
X123932359Y-128583061D01*
X124151013Y-128436962D01*
X124336962Y-128251013D01*
X124483061Y-128032359D01*
X124583696Y-127789405D01*
X124635000Y-127531486D01*
X124635000Y-127316578D01*
X126579050Y-125372529D01*
X126612817Y-125344817D01*
X126723411Y-125210059D01*
X126805589Y-125056313D01*
X126856195Y-124889490D01*
X126869000Y-124759477D01*
X126869000Y-124759467D01*
X126873281Y-124716001D01*
X126869000Y-124672535D01*
X126869000Y-114701934D01*
X126901042Y-114662891D01*
X126955498Y-114581392D01*
X127014464Y-114471075D01*
X127051973Y-114380519D01*
X127088282Y-114260823D01*
X127107404Y-114164690D01*
X127119664Y-114040209D01*
X127119664Y-114015650D01*
X127122072Y-113991200D01*
X127122072Y-113491200D01*
X127119664Y-113466750D01*
X127119664Y-113442191D01*
X127107404Y-113317710D01*
X127088282Y-113221577D01*
X127051973Y-113101881D01*
X127014464Y-113011325D01*
X126955498Y-112901008D01*
X126901042Y-112819509D01*
X126821690Y-112722818D01*
X126752382Y-112653510D01*
X126655691Y-112574158D01*
X126574192Y-112519702D01*
X126463875Y-112460736D01*
X126373319Y-112423227D01*
X126253623Y-112386918D01*
X126157490Y-112367796D01*
X126033009Y-112355536D01*
X126008450Y-112355536D01*
X125984000Y-112353128D01*
X125484000Y-112353128D01*
X125359518Y-112365388D01*
X125334000Y-112373129D01*
X125308482Y-112365388D01*
X125184000Y-112353128D01*
X124684000Y-112353128D01*
X124659550Y-112355536D01*
X124634991Y-112355536D01*
X124510510Y-112367796D01*
X124414377Y-112386918D01*
X124294681Y-112423227D01*
X124204125Y-112460736D01*
X124093808Y-112519702D01*
X124012309Y-112574158D01*
X123915618Y-112653510D01*
X123846310Y-112722818D01*
X123766958Y-112819509D01*
X123712502Y-112901008D01*
X123665100Y-112989690D01*
X123617698Y-112901008D01*
X123563242Y-112819509D01*
X123483890Y-112722818D01*
X123414582Y-112653510D01*
X123317891Y-112574158D01*
X123236392Y-112519702D01*
X123126075Y-112460736D01*
X123035519Y-112423227D01*
X122915823Y-112386918D01*
X122819690Y-112367796D01*
X122695209Y-112355536D01*
X122670650Y-112355536D01*
X122646200Y-112353128D01*
X122146200Y-112353128D01*
X122021718Y-112365388D01*
X121996200Y-112373129D01*
X121970682Y-112365388D01*
X121846200Y-112353128D01*
X121346200Y-112353128D01*
X121321750Y-112355536D01*
X121297191Y-112355536D01*
X121172710Y-112367796D01*
X121076577Y-112386918D01*
X120956881Y-112423227D01*
X120866325Y-112460736D01*
X120756008Y-112519702D01*
X120674509Y-112574158D01*
X120577818Y-112653510D01*
X120508510Y-112722818D01*
X120429158Y-112819509D01*
X120374702Y-112901008D01*
X120315736Y-113011325D01*
X120278227Y-113101881D01*
X120241918Y-113221577D01*
X120222796Y-113317710D01*
X120210536Y-113442191D01*
X120210536Y-113466750D01*
X120208128Y-113491200D01*
X120208128Y-113991200D01*
X120210536Y-114015650D01*
X120210536Y-114040209D01*
X120222796Y-114164690D01*
X120241918Y-114260823D01*
X120278227Y-114380519D01*
X120315736Y-114471075D01*
X120374702Y-114581392D01*
X120429158Y-114662891D01*
X120508510Y-114759582D01*
X120577818Y-114828890D01*
X120674509Y-114908242D01*
X120756008Y-114962698D01*
X120866325Y-115021664D01*
X120956881Y-115059173D01*
X121076577Y-115095482D01*
X121172710Y-115114604D01*
X121297191Y-115126864D01*
X121321750Y-115126864D01*
X121346200Y-115129272D01*
X121846200Y-115129272D01*
X121970682Y-115117012D01*
X121996200Y-115109271D01*
X122021718Y-115117012D01*
X122146200Y-115129272D01*
X122646200Y-115129272D01*
X122670650Y-115126864D01*
X122695209Y-115126864D01*
X122758688Y-115120612D01*
X122762200Y-115156269D01*
X122762200Y-115156276D01*
X122775005Y-115286289D01*
X122825611Y-115453112D01*
X122907789Y-115606858D01*
X123018383Y-115741617D01*
X123052156Y-115769334D01*
X123965002Y-116682181D01*
X123965002Y-116926928D01*
X122400000Y-116926928D01*
X122275518Y-116939188D01*
X122155820Y-116975498D01*
X122045506Y-117034463D01*
X121948815Y-117113815D01*
X121869463Y-117210506D01*
X121867061Y-117215000D01*
X121066579Y-117215000D01*
X120123703Y-116272124D01*
X118936100Y-115084522D01*
X118936100Y-112848563D01*
X118940381Y-112805097D01*
X118936100Y-112761631D01*
X118936100Y-112761621D01*
X118923295Y-112631608D01*
X118872689Y-112464785D01*
X118790511Y-112311039D01*
X118679917Y-112176281D01*
X118646149Y-112148568D01*
X117952535Y-111454955D01*
X117936158Y-111435000D01*
X128465001Y-111435000D01*
X128465000Y-129309047D01*
G37*
G04 #@! TD.AperFunction*
D21*
X110793471Y-111454950D02*
X110176439Y-112071983D01*
X110141335Y-112065000D01*
X109858665Y-112065000D01*
X109581426Y-112120147D01*
X109320273Y-112228320D01*
X109085241Y-112385363D01*
X108885363Y-112585241D01*
X108728320Y-112820273D01*
X108620147Y-113081426D01*
X108565000Y-113358665D01*
X108565000Y-113641335D01*
X108620147Y-113918574D01*
X108728320Y-114179727D01*
X108885363Y-114414759D01*
X109085241Y-114614637D01*
X109320273Y-114771680D01*
X109581426Y-114879853D01*
X109858665Y-114935000D01*
X110141335Y-114935000D01*
X110418574Y-114879853D01*
X110679727Y-114771680D01*
X110914759Y-114614637D01*
X111114637Y-114414759D01*
X111271680Y-114179727D01*
X111379853Y-113918574D01*
X111435000Y-113641335D01*
X111435000Y-113358665D01*
X111428017Y-113323561D01*
X111816580Y-112934999D01*
X111980799Y-112934999D01*
X111920147Y-113081426D01*
X111865000Y-113358665D01*
X111865000Y-113641335D01*
X111920147Y-113918574D01*
X112028320Y-114179727D01*
X112185363Y-114414759D01*
X112385241Y-114614637D01*
X112620273Y-114771680D01*
X112881426Y-114879853D01*
X113158665Y-114935000D01*
X113441335Y-114935000D01*
X113476439Y-114928017D01*
X121053470Y-122505049D01*
X121081183Y-122538817D01*
X121114951Y-122566530D01*
X121114953Y-122566532D01*
X121186452Y-122625210D01*
X121215941Y-122649411D01*
X121369687Y-122731589D01*
X121536510Y-122782195D01*
X121666523Y-122795000D01*
X121666533Y-122795000D01*
X121709999Y-122799281D01*
X121753466Y-122795000D01*
X122169094Y-122795000D01*
X122281838Y-122887526D01*
X122485094Y-122996169D01*
X122705640Y-123063071D01*
X122877523Y-123080000D01*
X123722477Y-123080000D01*
X123894360Y-123063071D01*
X124114906Y-122996169D01*
X124318162Y-122887526D01*
X124496318Y-122741318D01*
X124642526Y-122563162D01*
X124751169Y-122359906D01*
X124818071Y-122139360D01*
X124840661Y-121910000D01*
X124818071Y-121680640D01*
X124751169Y-121460094D01*
X124652234Y-121275000D01*
X124751169Y-121089906D01*
X124818071Y-120869360D01*
X124840661Y-120640000D01*
X124818071Y-120410640D01*
X124770064Y-120252381D01*
X124873490Y-120242195D01*
X125040313Y-120191589D01*
X125099000Y-120160220D01*
X125099000Y-124349421D01*
X123383422Y-126065000D01*
X123168514Y-126065000D01*
X122910595Y-126116304D01*
X122667641Y-126216939D01*
X122448987Y-126363038D01*
X122263038Y-126548987D01*
X122116939Y-126767641D01*
X122016304Y-127010595D01*
X121965000Y-127268514D01*
X121965000Y-127483421D01*
X119534950Y-129913472D01*
X119501183Y-129941184D01*
X119473470Y-129974952D01*
X119473467Y-129974955D01*
X119390589Y-130075942D01*
X119308411Y-130229688D01*
X119257804Y-130396511D01*
X119240718Y-130570001D01*
X119245000Y-130613479D01*
X119245000Y-130945000D01*
X119188665Y-130945000D01*
X118911426Y-131000147D01*
X118650273Y-131108320D01*
X118415241Y-131265363D01*
X118215363Y-131465241D01*
X118060000Y-131697759D01*
X117904637Y-131465241D01*
X117704759Y-131265363D01*
X117469727Y-131108320D01*
X117208574Y-131000147D01*
X116931335Y-130945000D01*
X116648665Y-130945000D01*
X116371426Y-131000147D01*
X116110273Y-131108320D01*
X115875241Y-131265363D01*
X115675363Y-131465241D01*
X115520000Y-131697759D01*
X115364637Y-131465241D01*
X115164759Y-131265363D01*
X114929727Y-131108320D01*
X114668574Y-131000147D01*
X114391335Y-130945000D01*
X114108665Y-130945000D01*
X114073561Y-130951983D01*
X110885000Y-127763422D01*
X110885000Y-125926118D01*
X110972580Y-125991037D01*
X111226913Y-126111246D01*
X111360961Y-126151904D01*
X111583000Y-126029915D01*
X111583000Y-124887000D01*
X111563000Y-124887000D01*
X111563000Y-124633000D01*
X111583000Y-124633000D01*
X111583000Y-123490085D01*
X111837000Y-123490085D01*
X111837000Y-124633000D01*
X111857000Y-124633000D01*
X111857000Y-124887000D01*
X111837000Y-124887000D01*
X111837000Y-126029915D01*
X112059039Y-126151904D01*
X112193087Y-126111246D01*
X112447420Y-125991037D01*
X112673414Y-125823519D01*
X112862385Y-125615131D01*
X112973933Y-125429135D01*
X112978320Y-125439727D01*
X113135363Y-125674759D01*
X113335241Y-125874637D01*
X113570273Y-126031680D01*
X113831426Y-126139853D01*
X114108665Y-126195000D01*
X114391335Y-126195000D01*
X114668574Y-126139853D01*
X114929727Y-126031680D01*
X115164759Y-125874637D01*
X115364637Y-125674759D01*
X115520000Y-125442241D01*
X115675363Y-125674759D01*
X115875241Y-125874637D01*
X116110273Y-126031680D01*
X116371426Y-126139853D01*
X116648665Y-126195000D01*
X116931335Y-126195000D01*
X117208574Y-126139853D01*
X117469727Y-126031680D01*
X117704759Y-125874637D01*
X117903357Y-125676039D01*
X117904188Y-125684482D01*
X117940498Y-125804180D01*
X117999463Y-125914494D01*
X118078815Y-126011185D01*
X118175506Y-126090537D01*
X118285820Y-126149502D01*
X118405518Y-126185812D01*
X118530000Y-126198072D01*
X120130000Y-126198072D01*
X120254482Y-126185812D01*
X120374180Y-126149502D01*
X120484494Y-126090537D01*
X120581185Y-126011185D01*
X120660537Y-125914494D01*
X120719502Y-125804180D01*
X120755812Y-125684482D01*
X120768072Y-125560000D01*
X120768072Y-123960000D01*
X120755812Y-123835518D01*
X120719502Y-123715820D01*
X120660537Y-123605506D01*
X120581185Y-123508815D01*
X120484494Y-123429463D01*
X120374180Y-123370498D01*
X120254482Y-123334188D01*
X120130000Y-123321928D01*
X118530000Y-123321928D01*
X118405518Y-123334188D01*
X118285820Y-123370498D01*
X118175506Y-123429463D01*
X118078815Y-123508815D01*
X117999463Y-123605506D01*
X117940498Y-123715820D01*
X117904188Y-123835518D01*
X117903357Y-123843961D01*
X117704759Y-123645363D01*
X117675000Y-123625479D01*
X117675000Y-122074396D01*
X117714637Y-122034759D01*
X117871680Y-121799727D01*
X117979853Y-121538574D01*
X118035000Y-121261335D01*
X118035000Y-120978665D01*
X117979853Y-120701426D01*
X117871680Y-120440273D01*
X117714637Y-120205241D01*
X117514759Y-120005363D01*
X117279727Y-119848320D01*
X117018574Y-119740147D01*
X116741335Y-119685000D01*
X116458665Y-119685000D01*
X116181426Y-119740147D01*
X115920273Y-119848320D01*
X115685241Y-120005363D01*
X115485363Y-120205241D01*
X115328320Y-120440273D01*
X115220147Y-120701426D01*
X115165000Y-120978665D01*
X115165000Y-121261335D01*
X115220147Y-121538574D01*
X115328320Y-121799727D01*
X115485363Y-122034759D01*
X115685241Y-122234637D01*
X115905001Y-122381475D01*
X115905000Y-123625478D01*
X115875241Y-123645363D01*
X115675363Y-123845241D01*
X115520000Y-124077759D01*
X115364637Y-123845241D01*
X115164759Y-123645363D01*
X115135000Y-123625479D01*
X115135000Y-122113469D01*
X115139281Y-122070000D01*
X115135000Y-122026531D01*
X115135000Y-122026523D01*
X115122195Y-121896510D01*
X115071589Y-121729687D01*
X114989411Y-121575941D01*
X114984278Y-121569686D01*
X114906532Y-121474953D01*
X114906530Y-121474951D01*
X114878817Y-121441183D01*
X114845049Y-121413470D01*
X114728017Y-121296439D01*
X114735000Y-121261335D01*
X114735000Y-120978665D01*
X114679853Y-120701426D01*
X114571680Y-120440273D01*
X114414637Y-120205241D01*
X114214759Y-120005363D01*
X113979727Y-119848320D01*
X113718574Y-119740147D01*
X113441335Y-119685000D01*
X113158665Y-119685000D01*
X112881426Y-119740147D01*
X112620273Y-119848320D01*
X112385241Y-120005363D01*
X112185363Y-120205241D01*
X112028320Y-120440273D01*
X111920147Y-120701426D01*
X111865000Y-120978665D01*
X111865000Y-121261335D01*
X111920147Y-121538574D01*
X112028320Y-121799727D01*
X112185363Y-122034759D01*
X112385241Y-122234637D01*
X112620273Y-122391680D01*
X112881426Y-122499853D01*
X113158665Y-122555000D01*
X113365001Y-122555000D01*
X113365000Y-123625478D01*
X113335241Y-123645363D01*
X113135363Y-123845241D01*
X112978320Y-124080273D01*
X112973933Y-124090865D01*
X112862385Y-123904869D01*
X112673414Y-123696481D01*
X112447420Y-123528963D01*
X112193087Y-123408754D01*
X112059039Y-123368096D01*
X111837000Y-123490085D01*
X111583000Y-123490085D01*
X111360961Y-123368096D01*
X111226913Y-123408754D01*
X110972580Y-123528963D01*
X110885000Y-123593882D01*
X110885000Y-122254521D01*
X110914759Y-122234637D01*
X111114637Y-122034759D01*
X111271680Y-121799727D01*
X111379853Y-121538574D01*
X111435000Y-121261335D01*
X111435000Y-120978665D01*
X111379853Y-120701426D01*
X111271680Y-120440273D01*
X111114637Y-120205241D01*
X110914759Y-120005363D01*
X110679727Y-119848320D01*
X110418574Y-119740147D01*
X110141335Y-119685000D01*
X109858665Y-119685000D01*
X109581426Y-119740147D01*
X109320273Y-119848320D01*
X109085241Y-120005363D01*
X108885363Y-120205241D01*
X108728320Y-120440273D01*
X108620147Y-120701426D01*
X108565000Y-120978665D01*
X108565000Y-121261335D01*
X108620147Y-121538574D01*
X108728320Y-121799727D01*
X108885363Y-122034759D01*
X109085241Y-122234637D01*
X109115001Y-122254522D01*
X109115000Y-128086531D01*
X109110719Y-128130000D01*
X109115000Y-128173469D01*
X109115000Y-128173476D01*
X109127805Y-128303489D01*
X109178411Y-128470312D01*
X109260589Y-128624058D01*
X109371183Y-128758817D01*
X109404956Y-128786534D01*
X111564291Y-130945870D01*
X111291426Y-131000147D01*
X111030273Y-131108320D01*
X110795241Y-131265363D01*
X110595363Y-131465241D01*
X110438320Y-131700273D01*
X110330147Y-131961426D01*
X110275000Y-132238665D01*
X110275000Y-132521335D01*
X110330147Y-132798574D01*
X110438320Y-133059727D01*
X110595363Y-133294759D01*
X110795241Y-133494637D01*
X110900401Y-133564902D01*
X110900400Y-135265479D01*
X110870641Y-135285363D01*
X110670763Y-135485241D01*
X110513720Y-135720273D01*
X110405547Y-135981426D01*
X110350400Y-136258665D01*
X110350400Y-136541335D01*
X110357383Y-136576438D01*
X109740350Y-137193472D01*
X109706583Y-137221184D01*
X109678870Y-137254952D01*
X109678867Y-137254955D01*
X109595989Y-137355942D01*
X109513811Y-137509688D01*
X109463204Y-137676511D01*
X109446118Y-137850001D01*
X109450400Y-137893480D01*
X109450399Y-140445736D01*
X109446118Y-140489205D01*
X109450399Y-140532674D01*
X109450399Y-140532681D01*
X109463204Y-140662694D01*
X109513810Y-140829517D01*
X109595988Y-140983263D01*
X109706582Y-141118022D01*
X109740355Y-141145739D01*
X113163154Y-144568539D01*
X113051925Y-144679768D01*
X112889410Y-144922989D01*
X112777468Y-145193242D01*
X112720400Y-145480140D01*
X112720400Y-145772660D01*
X112777468Y-146059558D01*
X112889410Y-146329811D01*
X112907176Y-146356400D01*
X109371500Y-146356400D01*
X109371500Y-129061428D01*
X107535000Y-129061428D01*
X107535000Y-111435000D01*
X110809844Y-111435000D01*
X110793471Y-111454950D01*
G04 #@! TA.AperFunction,Conductor*
D22*
G36*
X110793471Y-111454950D02*
G01*
X110176439Y-112071983D01*
X110141335Y-112065000D01*
X109858665Y-112065000D01*
X109581426Y-112120147D01*
X109320273Y-112228320D01*
X109085241Y-112385363D01*
X108885363Y-112585241D01*
X108728320Y-112820273D01*
X108620147Y-113081426D01*
X108565000Y-113358665D01*
X108565000Y-113641335D01*
X108620147Y-113918574D01*
X108728320Y-114179727D01*
X108885363Y-114414759D01*
X109085241Y-114614637D01*
X109320273Y-114771680D01*
X109581426Y-114879853D01*
X109858665Y-114935000D01*
X110141335Y-114935000D01*
X110418574Y-114879853D01*
X110679727Y-114771680D01*
X110914759Y-114614637D01*
X111114637Y-114414759D01*
X111271680Y-114179727D01*
X111379853Y-113918574D01*
X111435000Y-113641335D01*
X111435000Y-113358665D01*
X111428017Y-113323561D01*
X111816580Y-112934999D01*
X111980799Y-112934999D01*
X111920147Y-113081426D01*
X111865000Y-113358665D01*
X111865000Y-113641335D01*
X111920147Y-113918574D01*
X112028320Y-114179727D01*
X112185363Y-114414759D01*
X112385241Y-114614637D01*
X112620273Y-114771680D01*
X112881426Y-114879853D01*
X113158665Y-114935000D01*
X113441335Y-114935000D01*
X113476439Y-114928017D01*
X121053470Y-122505049D01*
X121081183Y-122538817D01*
X121114951Y-122566530D01*
X121114953Y-122566532D01*
X121186452Y-122625210D01*
X121215941Y-122649411D01*
X121369687Y-122731589D01*
X121536510Y-122782195D01*
X121666523Y-122795000D01*
X121666533Y-122795000D01*
X121709999Y-122799281D01*
X121753466Y-122795000D01*
X122169094Y-122795000D01*
X122281838Y-122887526D01*
X122485094Y-122996169D01*
X122705640Y-123063071D01*
X122877523Y-123080000D01*
X123722477Y-123080000D01*
X123894360Y-123063071D01*
X124114906Y-122996169D01*
X124318162Y-122887526D01*
X124496318Y-122741318D01*
X124642526Y-122563162D01*
X124751169Y-122359906D01*
X124818071Y-122139360D01*
X124840661Y-121910000D01*
X124818071Y-121680640D01*
X124751169Y-121460094D01*
X124652234Y-121275000D01*
X124751169Y-121089906D01*
X124818071Y-120869360D01*
X124840661Y-120640000D01*
X124818071Y-120410640D01*
X124770064Y-120252381D01*
X124873490Y-120242195D01*
X125040313Y-120191589D01*
X125099000Y-120160220D01*
X125099000Y-124349421D01*
X123383422Y-126065000D01*
X123168514Y-126065000D01*
X122910595Y-126116304D01*
X122667641Y-126216939D01*
X122448987Y-126363038D01*
X122263038Y-126548987D01*
X122116939Y-126767641D01*
X122016304Y-127010595D01*
X121965000Y-127268514D01*
X121965000Y-127483421D01*
X119534950Y-129913472D01*
X119501183Y-129941184D01*
X119473470Y-129974952D01*
X119473467Y-129974955D01*
X119390589Y-130075942D01*
X119308411Y-130229688D01*
X119257804Y-130396511D01*
X119240718Y-130570001D01*
X119245000Y-130613479D01*
X119245000Y-130945000D01*
X119188665Y-130945000D01*
X118911426Y-131000147D01*
X118650273Y-131108320D01*
X118415241Y-131265363D01*
X118215363Y-131465241D01*
X118060000Y-131697759D01*
X117904637Y-131465241D01*
X117704759Y-131265363D01*
X117469727Y-131108320D01*
X117208574Y-131000147D01*
X116931335Y-130945000D01*
X116648665Y-130945000D01*
X116371426Y-131000147D01*
X116110273Y-131108320D01*
X115875241Y-131265363D01*
X115675363Y-131465241D01*
X115520000Y-131697759D01*
X115364637Y-131465241D01*
X115164759Y-131265363D01*
X114929727Y-131108320D01*
X114668574Y-131000147D01*
X114391335Y-130945000D01*
X114108665Y-130945000D01*
X114073561Y-130951983D01*
X110885000Y-127763422D01*
X110885000Y-125926118D01*
X110972580Y-125991037D01*
X111226913Y-126111246D01*
X111360961Y-126151904D01*
X111583000Y-126029915D01*
X111583000Y-124887000D01*
X111563000Y-124887000D01*
X111563000Y-124633000D01*
X111583000Y-124633000D01*
X111583000Y-123490085D01*
X111837000Y-123490085D01*
X111837000Y-124633000D01*
X111857000Y-124633000D01*
X111857000Y-124887000D01*
X111837000Y-124887000D01*
X111837000Y-126029915D01*
X112059039Y-126151904D01*
X112193087Y-126111246D01*
X112447420Y-125991037D01*
X112673414Y-125823519D01*
X112862385Y-125615131D01*
X112973933Y-125429135D01*
X112978320Y-125439727D01*
X113135363Y-125674759D01*
X113335241Y-125874637D01*
X113570273Y-126031680D01*
X113831426Y-126139853D01*
X114108665Y-126195000D01*
X114391335Y-126195000D01*
X114668574Y-126139853D01*
X114929727Y-126031680D01*
X115164759Y-125874637D01*
X115364637Y-125674759D01*
X115520000Y-125442241D01*
X115675363Y-125674759D01*
X115875241Y-125874637D01*
X116110273Y-126031680D01*
X116371426Y-126139853D01*
X116648665Y-126195000D01*
X116931335Y-126195000D01*
X117208574Y-126139853D01*
X117469727Y-126031680D01*
X117704759Y-125874637D01*
X117903357Y-125676039D01*
X117904188Y-125684482D01*
X117940498Y-125804180D01*
X117999463Y-125914494D01*
X118078815Y-126011185D01*
X118175506Y-126090537D01*
X118285820Y-126149502D01*
X118405518Y-126185812D01*
X118530000Y-126198072D01*
X120130000Y-126198072D01*
X120254482Y-126185812D01*
X120374180Y-126149502D01*
X120484494Y-126090537D01*
X120581185Y-126011185D01*
X120660537Y-125914494D01*
X120719502Y-125804180D01*
X120755812Y-125684482D01*
X120768072Y-125560000D01*
X120768072Y-123960000D01*
X120755812Y-123835518D01*
X120719502Y-123715820D01*
X120660537Y-123605506D01*
X120581185Y-123508815D01*
X120484494Y-123429463D01*
X120374180Y-123370498D01*
X120254482Y-123334188D01*
X120130000Y-123321928D01*
X118530000Y-123321928D01*
X118405518Y-123334188D01*
X118285820Y-123370498D01*
X118175506Y-123429463D01*
X118078815Y-123508815D01*
X117999463Y-123605506D01*
X117940498Y-123715820D01*
X117904188Y-123835518D01*
X117903357Y-123843961D01*
X117704759Y-123645363D01*
X117675000Y-123625479D01*
X117675000Y-122074396D01*
X117714637Y-122034759D01*
X117871680Y-121799727D01*
X117979853Y-121538574D01*
X118035000Y-121261335D01*
X118035000Y-120978665D01*
X117979853Y-120701426D01*
X117871680Y-120440273D01*
X117714637Y-120205241D01*
X117514759Y-120005363D01*
X117279727Y-119848320D01*
X117018574Y-119740147D01*
X116741335Y-119685000D01*
X116458665Y-119685000D01*
X116181426Y-119740147D01*
X115920273Y-119848320D01*
X115685241Y-120005363D01*
X115485363Y-120205241D01*
X115328320Y-120440273D01*
X115220147Y-120701426D01*
X115165000Y-120978665D01*
X115165000Y-121261335D01*
X115220147Y-121538574D01*
X115328320Y-121799727D01*
X115485363Y-122034759D01*
X115685241Y-122234637D01*
X115905001Y-122381475D01*
X115905000Y-123625478D01*
X115875241Y-123645363D01*
X115675363Y-123845241D01*
X115520000Y-124077759D01*
X115364637Y-123845241D01*
X115164759Y-123645363D01*
X115135000Y-123625479D01*
X115135000Y-122113469D01*
X115139281Y-122070000D01*
X115135000Y-122026531D01*
X115135000Y-122026523D01*
X115122195Y-121896510D01*
X115071589Y-121729687D01*
X114989411Y-121575941D01*
X114984278Y-121569686D01*
X114906532Y-121474953D01*
X114906530Y-121474951D01*
X114878817Y-121441183D01*
X114845049Y-121413470D01*
X114728017Y-121296439D01*
X114735000Y-121261335D01*
X114735000Y-120978665D01*
X114679853Y-120701426D01*
X114571680Y-120440273D01*
X114414637Y-120205241D01*
X114214759Y-120005363D01*
X113979727Y-119848320D01*
X113718574Y-119740147D01*
X113441335Y-119685000D01*
X113158665Y-119685000D01*
X112881426Y-119740147D01*
X112620273Y-119848320D01*
X112385241Y-120005363D01*
X112185363Y-120205241D01*
X112028320Y-120440273D01*
X111920147Y-120701426D01*
X111865000Y-120978665D01*
X111865000Y-121261335D01*
X111920147Y-121538574D01*
X112028320Y-121799727D01*
X112185363Y-122034759D01*
X112385241Y-122234637D01*
X112620273Y-122391680D01*
X112881426Y-122499853D01*
X113158665Y-122555000D01*
X113365001Y-122555000D01*
X113365000Y-123625478D01*
X113335241Y-123645363D01*
X113135363Y-123845241D01*
X112978320Y-124080273D01*
X112973933Y-124090865D01*
X112862385Y-123904869D01*
X112673414Y-123696481D01*
X112447420Y-123528963D01*
X112193087Y-123408754D01*
X112059039Y-123368096D01*
X111837000Y-123490085D01*
X111583000Y-123490085D01*
X111360961Y-123368096D01*
X111226913Y-123408754D01*
X110972580Y-123528963D01*
X110885000Y-123593882D01*
X110885000Y-122254521D01*
X110914759Y-122234637D01*
X111114637Y-122034759D01*
X111271680Y-121799727D01*
X111379853Y-121538574D01*
X111435000Y-121261335D01*
X111435000Y-120978665D01*
X111379853Y-120701426D01*
X111271680Y-120440273D01*
X111114637Y-120205241D01*
X110914759Y-120005363D01*
X110679727Y-119848320D01*
X110418574Y-119740147D01*
X110141335Y-119685000D01*
X109858665Y-119685000D01*
X109581426Y-119740147D01*
X109320273Y-119848320D01*
X109085241Y-120005363D01*
X108885363Y-120205241D01*
X108728320Y-120440273D01*
X108620147Y-120701426D01*
X108565000Y-120978665D01*
X108565000Y-121261335D01*
X108620147Y-121538574D01*
X108728320Y-121799727D01*
X108885363Y-122034759D01*
X109085241Y-122234637D01*
X109115001Y-122254522D01*
X109115000Y-128086531D01*
X109110719Y-128130000D01*
X109115000Y-128173469D01*
X109115000Y-128173476D01*
X109127805Y-128303489D01*
X109178411Y-128470312D01*
X109260589Y-128624058D01*
X109371183Y-128758817D01*
X109404956Y-128786534D01*
X111564291Y-130945870D01*
X111291426Y-131000147D01*
X111030273Y-131108320D01*
X110795241Y-131265363D01*
X110595363Y-131465241D01*
X110438320Y-131700273D01*
X110330147Y-131961426D01*
X110275000Y-132238665D01*
X110275000Y-132521335D01*
X110330147Y-132798574D01*
X110438320Y-133059727D01*
X110595363Y-133294759D01*
X110795241Y-133494637D01*
X110900401Y-133564902D01*
X110900400Y-135265479D01*
X110870641Y-135285363D01*
X110670763Y-135485241D01*
X110513720Y-135720273D01*
X110405547Y-135981426D01*
X110350400Y-136258665D01*
X110350400Y-136541335D01*
X110357383Y-136576438D01*
X109740350Y-137193472D01*
X109706583Y-137221184D01*
X109678870Y-137254952D01*
X109678867Y-137254955D01*
X109595989Y-137355942D01*
X109513811Y-137509688D01*
X109463204Y-137676511D01*
X109446118Y-137850001D01*
X109450400Y-137893480D01*
X109450399Y-140445736D01*
X109446118Y-140489205D01*
X109450399Y-140532674D01*
X109450399Y-140532681D01*
X109463204Y-140662694D01*
X109513810Y-140829517D01*
X109595988Y-140983263D01*
X109706582Y-141118022D01*
X109740355Y-141145739D01*
X113163154Y-144568539D01*
X113051925Y-144679768D01*
X112889410Y-144922989D01*
X112777468Y-145193242D01*
X112720400Y-145480140D01*
X112720400Y-145772660D01*
X112777468Y-146059558D01*
X112889410Y-146329811D01*
X112907176Y-146356400D01*
X109371500Y-146356400D01*
X109371500Y-129061428D01*
X107535000Y-129061428D01*
X107535000Y-111435000D01*
X110809844Y-111435000D01*
X110793471Y-111454950D01*
G37*
G04 #@! TD.AperFunction*
D21*
X118215363Y-133294759D02*
X118415241Y-133494637D01*
X118520401Y-133564902D01*
X118520400Y-135265479D01*
X118490641Y-135285363D01*
X118290763Y-135485241D01*
X118133720Y-135720273D01*
X118025547Y-135981426D01*
X117970400Y-136258665D01*
X117970400Y-136541335D01*
X118025547Y-136818574D01*
X118133720Y-137079727D01*
X118290763Y-137314759D01*
X118490641Y-137514637D01*
X118520401Y-137534522D01*
X118520400Y-138565478D01*
X118490641Y-138585363D01*
X118290763Y-138785241D01*
X118133720Y-139020273D01*
X118025547Y-139281426D01*
X117970400Y-139558665D01*
X117970400Y-139841335D01*
X118025547Y-140118574D01*
X118133720Y-140379727D01*
X118290763Y-140614759D01*
X118490641Y-140814637D01*
X118725673Y-140971680D01*
X118986826Y-141079853D01*
X119264065Y-141135000D01*
X119546735Y-141135000D01*
X119581839Y-141128017D01*
X120940401Y-142486580D01*
X120940400Y-144141775D01*
X120850918Y-144150588D01*
X120731220Y-144186898D01*
X120620906Y-144245863D01*
X120524215Y-144325215D01*
X120444863Y-144421906D01*
X120385898Y-144532220D01*
X120361434Y-144612866D01*
X120285669Y-144528812D01*
X120052320Y-144354759D01*
X119789499Y-144229575D01*
X119642290Y-144184924D01*
X119412400Y-144306245D01*
X119412400Y-145499400D01*
X119432400Y-145499400D01*
X119432400Y-145753400D01*
X119412400Y-145753400D01*
X119412400Y-145773400D01*
X119158400Y-145773400D01*
X119158400Y-145753400D01*
X119138400Y-145753400D01*
X119138400Y-145499400D01*
X119158400Y-145499400D01*
X119158400Y-144306245D01*
X118928510Y-144184924D01*
X118781301Y-144229575D01*
X118518480Y-144354759D01*
X118285131Y-144528812D01*
X118090222Y-144745045D01*
X118020595Y-144861934D01*
X117898875Y-144679768D01*
X117692032Y-144472925D01*
X117448811Y-144310410D01*
X117178558Y-144198468D01*
X116891660Y-144141400D01*
X116599140Y-144141400D01*
X116526440Y-144155861D01*
X112934203Y-140563625D01*
X113057080Y-140379727D01*
X113165253Y-140118574D01*
X113220400Y-139841335D01*
X113220400Y-139558665D01*
X113213417Y-139523561D01*
X114285450Y-138451529D01*
X114319217Y-138423817D01*
X114384673Y-138344060D01*
X114429811Y-138289059D01*
X114442671Y-138265000D01*
X114511989Y-138135313D01*
X114562595Y-137968490D01*
X114575400Y-137838477D01*
X114575400Y-137838469D01*
X114579681Y-137795000D01*
X114575400Y-137751531D01*
X114575400Y-135846178D01*
X116613561Y-133808017D01*
X116648665Y-133815000D01*
X116931335Y-133815000D01*
X117208574Y-133759853D01*
X117469727Y-133651680D01*
X117704759Y-133494637D01*
X117904637Y-133294759D01*
X118060000Y-133062241D01*
X118215363Y-133294759D01*
G04 #@! TA.AperFunction,Conductor*
D22*
G36*
X118215363Y-133294759D02*
G01*
X118415241Y-133494637D01*
X118520401Y-133564902D01*
X118520400Y-135265479D01*
X118490641Y-135285363D01*
X118290763Y-135485241D01*
X118133720Y-135720273D01*
X118025547Y-135981426D01*
X117970400Y-136258665D01*
X117970400Y-136541335D01*
X118025547Y-136818574D01*
X118133720Y-137079727D01*
X118290763Y-137314759D01*
X118490641Y-137514637D01*
X118520401Y-137534522D01*
X118520400Y-138565478D01*
X118490641Y-138585363D01*
X118290763Y-138785241D01*
X118133720Y-139020273D01*
X118025547Y-139281426D01*
X117970400Y-139558665D01*
X117970400Y-139841335D01*
X118025547Y-140118574D01*
X118133720Y-140379727D01*
X118290763Y-140614759D01*
X118490641Y-140814637D01*
X118725673Y-140971680D01*
X118986826Y-141079853D01*
X119264065Y-141135000D01*
X119546735Y-141135000D01*
X119581839Y-141128017D01*
X120940401Y-142486580D01*
X120940400Y-144141775D01*
X120850918Y-144150588D01*
X120731220Y-144186898D01*
X120620906Y-144245863D01*
X120524215Y-144325215D01*
X120444863Y-144421906D01*
X120385898Y-144532220D01*
X120361434Y-144612866D01*
X120285669Y-144528812D01*
X120052320Y-144354759D01*
X119789499Y-144229575D01*
X119642290Y-144184924D01*
X119412400Y-144306245D01*
X119412400Y-145499400D01*
X119432400Y-145499400D01*
X119432400Y-145753400D01*
X119412400Y-145753400D01*
X119412400Y-145773400D01*
X119158400Y-145773400D01*
X119158400Y-145753400D01*
X119138400Y-145753400D01*
X119138400Y-145499400D01*
X119158400Y-145499400D01*
X119158400Y-144306245D01*
X118928510Y-144184924D01*
X118781301Y-144229575D01*
X118518480Y-144354759D01*
X118285131Y-144528812D01*
X118090222Y-144745045D01*
X118020595Y-144861934D01*
X117898875Y-144679768D01*
X117692032Y-144472925D01*
X117448811Y-144310410D01*
X117178558Y-144198468D01*
X116891660Y-144141400D01*
X116599140Y-144141400D01*
X116526440Y-144155861D01*
X112934203Y-140563625D01*
X113057080Y-140379727D01*
X113165253Y-140118574D01*
X113220400Y-139841335D01*
X113220400Y-139558665D01*
X113213417Y-139523561D01*
X114285450Y-138451529D01*
X114319217Y-138423817D01*
X114384673Y-138344060D01*
X114429811Y-138289059D01*
X114442671Y-138265000D01*
X114511989Y-138135313D01*
X114562595Y-137968490D01*
X114575400Y-137838477D01*
X114575400Y-137838469D01*
X114579681Y-137795000D01*
X114575400Y-137751531D01*
X114575400Y-135846178D01*
X116613561Y-133808017D01*
X116648665Y-133815000D01*
X116931335Y-133815000D01*
X117208574Y-133759853D01*
X117469727Y-133651680D01*
X117704759Y-133494637D01*
X117904637Y-133294759D01*
X118060000Y-133062241D01*
X118215363Y-133294759D01*
G37*
G04 #@! TD.AperFunction*
M02*
