%FSLAX45Y45*%
G04 Gerber Fmt 4.5, Leading zero omitted, Abs format (unit mm)*
G04 Created by KiCad (PCBNEW 5.1.10-88a1d61d58~90~ubuntu20.04.1) date 2021-10-12 10:12:22*
%MOMM*%
%LPD*%
G01*
G04 APERTURE LIST*
%TA.AperFunction,Profile*%
%ADD10C,0.200000*%
%TD*%
%ADD11C,0.200000*%
%ADD12C,0.300000*%
G04 APERTURE END LIST*
D10*
X10680000Y-14709140D02*
X10680000Y-11070000D01*
X12920000Y-11070000D02*
X10680000Y-11070000D01*
X12920000Y-14709140D02*
X12920000Y-11070000D01*
X10680000Y-14709140D02*
X12920000Y-14709140D01*
D11*
X12295000Y-12705000D02*
X12365000Y-12775000D01*
X12365000Y-12705000D02*
X12295000Y-12775000D01*
X12295000Y-12955000D02*
X12365000Y-13025000D01*
X12365000Y-12955000D02*
X12295000Y-13025000D01*
X11040000Y-11350000D02*
G75*
G03*
X11040000Y-11350000I-40000J0D01*
G01*
X11040000Y-12112000D02*
G75*
G03*
X11040000Y-12112000I-40000J0D01*
G01*
X11211000Y-12476000D02*
G75*
G03*
X11211000Y-12476000I-40000J0D01*
G01*
X11211000Y-13238000D02*
G75*
G03*
X11211000Y-13238000I-40000J0D01*
G01*
X11218540Y-13640000D02*
G75*
G03*
X11218540Y-13640000I-40000J0D01*
G01*
X11218540Y-13970000D02*
G75*
G03*
X11218540Y-13970000I-40000J0D01*
G01*
X11370000Y-11350000D02*
G75*
G03*
X11370000Y-11350000I-40000J0D01*
G01*
X11370000Y-12112000D02*
G75*
G03*
X11370000Y-12112000I-40000J0D01*
G01*
X11465000Y-12476000D02*
G75*
G03*
X11465000Y-12476000I-40000J0D01*
G01*
X11465000Y-13238000D02*
G75*
G03*
X11465000Y-13238000I-40000J0D01*
G01*
X11700000Y-11350000D02*
G75*
G03*
X11700000Y-11350000I-40000J0D01*
G01*
X11700000Y-12112000D02*
G75*
G03*
X11700000Y-12112000I-40000J0D01*
G01*
X11719000Y-12476000D02*
G75*
G03*
X11719000Y-12476000I-40000J0D01*
G01*
X11719000Y-13238000D02*
G75*
G03*
X11719000Y-13238000I-40000J0D01*
G01*
X11973000Y-12476000D02*
G75*
G03*
X11973000Y-12476000I-40000J0D01*
G01*
X11973000Y-13238000D02*
G75*
G03*
X11973000Y-13238000I-40000J0D01*
G01*
X11980540Y-13640000D02*
G75*
G03*
X11980540Y-13640000I-40000J0D01*
G01*
X11980540Y-13970000D02*
G75*
G03*
X11980540Y-13970000I-40000J0D01*
G01*
X12330000Y-11765000D02*
X12330000Y-11855000D01*
X12285000Y-11810000D02*
X12375000Y-11810000D01*
X12330000Y-11892000D02*
X12330000Y-11982000D01*
X12285000Y-11937000D02*
X12375000Y-11937000D01*
X12330000Y-12019000D02*
X12330000Y-12109000D01*
X12285000Y-12064000D02*
X12375000Y-12064000D01*
X12330000Y-12146000D02*
X12330000Y-12236000D01*
X12285000Y-12191000D02*
X12375000Y-12191000D01*
X11455896Y-14597996D02*
X11455896Y-14527284D01*
X11385184Y-14527284D01*
X11385184Y-14597996D01*
X11455896Y-14597996D01*
X11709896Y-14597996D02*
X11709896Y-14527284D01*
X11639184Y-14527284D01*
X11639184Y-14597996D01*
X11709896Y-14597996D01*
X11963896Y-14597996D02*
X11963896Y-14527284D01*
X11893184Y-14527284D01*
X11893184Y-14597996D01*
X11963896Y-14597996D01*
X12217896Y-14597996D02*
X12217896Y-14527284D01*
X12147184Y-14527284D01*
X12147184Y-14597996D01*
X12217896Y-14597996D01*
D12*
X10956428Y-15184854D02*
X10956428Y-14884854D01*
X11027857Y-14884854D01*
X11070714Y-14899140D01*
X11099286Y-14927711D01*
X11113571Y-14956283D01*
X11127857Y-15013426D01*
X11127857Y-15056283D01*
X11113571Y-15113426D01*
X11099286Y-15141997D01*
X11070714Y-15170569D01*
X11027857Y-15184854D01*
X10956428Y-15184854D01*
X11256428Y-15184854D02*
X11256428Y-14984854D01*
X11256428Y-15041997D02*
X11270714Y-15013426D01*
X11285000Y-14999140D01*
X11313571Y-14984854D01*
X11342143Y-14984854D01*
X11442143Y-15184854D02*
X11442143Y-14984854D01*
X11442143Y-14884854D02*
X11427857Y-14899140D01*
X11442143Y-14913426D01*
X11456428Y-14899140D01*
X11442143Y-14884854D01*
X11442143Y-14913426D01*
X11627857Y-15184854D02*
X11599286Y-15170569D01*
X11585000Y-15141997D01*
X11585000Y-14884854D01*
X11785000Y-15184854D02*
X11756428Y-15170569D01*
X11742143Y-15141997D01*
X11742143Y-14884854D01*
X12127857Y-15184854D02*
X12127857Y-14884854D01*
X12227857Y-15099140D01*
X12327857Y-14884854D01*
X12327857Y-15184854D01*
X12599286Y-15184854D02*
X12599286Y-15027711D01*
X12585000Y-14999140D01*
X12556428Y-14984854D01*
X12499286Y-14984854D01*
X12470714Y-14999140D01*
X12599286Y-15170569D02*
X12570714Y-15184854D01*
X12499286Y-15184854D01*
X12470714Y-15170569D01*
X12456428Y-15141997D01*
X12456428Y-15113426D01*
X12470714Y-15084854D01*
X12499286Y-15070569D01*
X12570714Y-15070569D01*
X12599286Y-15056283D01*
X12742143Y-14984854D02*
X12742143Y-15284854D01*
X12742143Y-14999140D02*
X12770714Y-14984854D01*
X12827857Y-14984854D01*
X12856428Y-14999140D01*
X12870714Y-15013426D01*
X12885000Y-15041997D01*
X12885000Y-15127711D01*
X12870714Y-15156283D01*
X12856428Y-15170569D01*
X12827857Y-15184854D01*
X12770714Y-15184854D01*
X12742143Y-15170569D01*
X13013571Y-15156283D02*
X13027857Y-15170569D01*
X13013571Y-15184854D01*
X12999286Y-15170569D01*
X13013571Y-15156283D01*
X13013571Y-15184854D01*
X13013571Y-14999140D02*
X13027857Y-15013426D01*
X13013571Y-15027711D01*
X12999286Y-15013426D01*
X13013571Y-14999140D01*
X13013571Y-15027711D01*
X10600000Y-15644140D02*
X10670000Y-15714140D01*
X10670000Y-15644140D02*
X10600000Y-15714140D01*
X11013571Y-15514854D02*
X11042143Y-15514854D01*
X11070714Y-15529140D01*
X11085000Y-15543426D01*
X11099286Y-15571997D01*
X11113571Y-15629140D01*
X11113571Y-15700569D01*
X11099286Y-15757711D01*
X11085000Y-15786283D01*
X11070714Y-15800569D01*
X11042143Y-15814854D01*
X11013571Y-15814854D01*
X10985000Y-15800569D01*
X10970714Y-15786283D01*
X10956428Y-15757711D01*
X10942143Y-15700569D01*
X10942143Y-15629140D01*
X10956428Y-15571997D01*
X10970714Y-15543426D01*
X10985000Y-15529140D01*
X11013571Y-15514854D01*
X11242143Y-15786283D02*
X11256428Y-15800569D01*
X11242143Y-15814854D01*
X11227857Y-15800569D01*
X11242143Y-15786283D01*
X11242143Y-15814854D01*
X11356428Y-15514854D02*
X11556428Y-15514854D01*
X11427857Y-15814854D01*
X11727857Y-15514854D02*
X11756428Y-15514854D01*
X11785000Y-15529140D01*
X11799286Y-15543426D01*
X11813571Y-15571997D01*
X11827857Y-15629140D01*
X11827857Y-15700569D01*
X11813571Y-15757711D01*
X11799286Y-15786283D01*
X11785000Y-15800569D01*
X11756428Y-15814854D01*
X11727857Y-15814854D01*
X11699286Y-15800569D01*
X11685000Y-15786283D01*
X11670714Y-15757711D01*
X11656428Y-15700569D01*
X11656428Y-15629140D01*
X11670714Y-15571997D01*
X11685000Y-15543426D01*
X11699286Y-15529140D01*
X11727857Y-15514854D01*
X12013571Y-15514854D02*
X12042143Y-15514854D01*
X12070714Y-15529140D01*
X12085000Y-15543426D01*
X12099286Y-15571997D01*
X12113571Y-15629140D01*
X12113571Y-15700569D01*
X12099286Y-15757711D01*
X12085000Y-15786283D01*
X12070714Y-15800569D01*
X12042143Y-15814854D01*
X12013571Y-15814854D01*
X11985000Y-15800569D01*
X11970714Y-15786283D01*
X11956428Y-15757711D01*
X11942143Y-15700569D01*
X11942143Y-15629140D01*
X11956428Y-15571997D01*
X11970714Y-15543426D01*
X11985000Y-15529140D01*
X12013571Y-15514854D01*
X12242143Y-15814854D02*
X12242143Y-15614854D01*
X12242143Y-15643426D02*
X12256428Y-15629140D01*
X12285000Y-15614854D01*
X12327857Y-15614854D01*
X12356428Y-15629140D01*
X12370714Y-15657711D01*
X12370714Y-15814854D01*
X12370714Y-15657711D02*
X12385000Y-15629140D01*
X12413571Y-15614854D01*
X12456428Y-15614854D01*
X12485000Y-15629140D01*
X12499286Y-15657711D01*
X12499286Y-15814854D01*
X12642143Y-15814854D02*
X12642143Y-15614854D01*
X12642143Y-15643426D02*
X12656428Y-15629140D01*
X12685000Y-15614854D01*
X12727857Y-15614854D01*
X12756428Y-15629140D01*
X12770714Y-15657711D01*
X12770714Y-15814854D01*
X12770714Y-15657711D02*
X12785000Y-15629140D01*
X12813571Y-15614854D01*
X12856428Y-15614854D01*
X12885000Y-15629140D01*
X12899286Y-15657711D01*
X12899286Y-15814854D01*
X13485000Y-15500569D02*
X13227857Y-15886283D01*
X13870714Y-15514854D02*
X13899286Y-15514854D01*
X13927857Y-15529140D01*
X13942143Y-15543426D01*
X13956428Y-15571997D01*
X13970714Y-15629140D01*
X13970714Y-15700569D01*
X13956428Y-15757711D01*
X13942143Y-15786283D01*
X13927857Y-15800569D01*
X13899286Y-15814854D01*
X13870714Y-15814854D01*
X13842143Y-15800569D01*
X13827857Y-15786283D01*
X13813571Y-15757711D01*
X13799286Y-15700569D01*
X13799286Y-15629140D01*
X13813571Y-15571997D01*
X13827857Y-15543426D01*
X13842143Y-15529140D01*
X13870714Y-15514854D01*
X14099286Y-15786283D02*
X14113571Y-15800569D01*
X14099286Y-15814854D01*
X14085000Y-15800569D01*
X14099286Y-15786283D01*
X14099286Y-15814854D01*
X14299286Y-15514854D02*
X14327857Y-15514854D01*
X14356428Y-15529140D01*
X14370714Y-15543426D01*
X14385000Y-15571997D01*
X14399286Y-15629140D01*
X14399286Y-15700569D01*
X14385000Y-15757711D01*
X14370714Y-15786283D01*
X14356428Y-15800569D01*
X14327857Y-15814854D01*
X14299286Y-15814854D01*
X14270714Y-15800569D01*
X14256428Y-15786283D01*
X14242143Y-15757711D01*
X14227857Y-15700569D01*
X14227857Y-15629140D01*
X14242143Y-15571997D01*
X14256428Y-15543426D01*
X14270714Y-15529140D01*
X14299286Y-15514854D01*
X14513571Y-15543426D02*
X14527857Y-15529140D01*
X14556428Y-15514854D01*
X14627857Y-15514854D01*
X14656428Y-15529140D01*
X14670714Y-15543426D01*
X14685000Y-15571997D01*
X14685000Y-15600569D01*
X14670714Y-15643426D01*
X14499286Y-15814854D01*
X14685000Y-15814854D01*
X14785000Y-15514854D02*
X14985000Y-15514854D01*
X14856428Y-15814854D01*
X15227857Y-15514854D02*
X15170714Y-15514854D01*
X15142143Y-15529140D01*
X15127857Y-15543426D01*
X15099286Y-15586283D01*
X15085000Y-15643426D01*
X15085000Y-15757711D01*
X15099286Y-15786283D01*
X15113571Y-15800569D01*
X15142143Y-15814854D01*
X15199286Y-15814854D01*
X15227857Y-15800569D01*
X15242143Y-15786283D01*
X15256428Y-15757711D01*
X15256428Y-15686283D01*
X15242143Y-15657711D01*
X15227857Y-15643426D01*
X15199286Y-15629140D01*
X15142143Y-15629140D01*
X15113571Y-15643426D01*
X15099286Y-15657711D01*
X15085000Y-15686283D01*
X15370714Y-15514854D02*
X15370714Y-15571997D01*
X15485000Y-15514854D02*
X15485000Y-15571997D01*
X15927857Y-15929140D02*
X15913571Y-15914854D01*
X15885000Y-15871997D01*
X15870714Y-15843426D01*
X15856428Y-15800569D01*
X15842143Y-15729140D01*
X15842143Y-15671997D01*
X15856428Y-15600569D01*
X15870714Y-15557711D01*
X15885000Y-15529140D01*
X15913571Y-15486283D01*
X15927857Y-15471997D01*
X16027857Y-15543426D02*
X16042143Y-15529140D01*
X16070714Y-15514854D01*
X16142143Y-15514854D01*
X16170714Y-15529140D01*
X16185000Y-15543426D01*
X16199286Y-15571997D01*
X16199286Y-15600569D01*
X16185000Y-15643426D01*
X16013571Y-15814854D01*
X16199286Y-15814854D01*
X16556428Y-15814854D02*
X16556428Y-15514854D01*
X16685000Y-15814854D02*
X16685000Y-15657711D01*
X16670714Y-15629140D01*
X16642143Y-15614854D01*
X16599286Y-15614854D01*
X16570714Y-15629140D01*
X16556428Y-15643426D01*
X16870714Y-15814854D02*
X16842143Y-15800569D01*
X16827857Y-15786283D01*
X16813571Y-15757711D01*
X16813571Y-15671997D01*
X16827857Y-15643426D01*
X16842143Y-15629140D01*
X16870714Y-15614854D01*
X16913571Y-15614854D01*
X16942143Y-15629140D01*
X16956428Y-15643426D01*
X16970714Y-15671997D01*
X16970714Y-15757711D01*
X16956428Y-15786283D01*
X16942143Y-15800569D01*
X16913571Y-15814854D01*
X16870714Y-15814854D01*
X17142143Y-15814854D02*
X17113571Y-15800569D01*
X17099286Y-15771997D01*
X17099286Y-15514854D01*
X17370714Y-15800569D02*
X17342143Y-15814854D01*
X17285000Y-15814854D01*
X17256428Y-15800569D01*
X17242143Y-15771997D01*
X17242143Y-15657711D01*
X17256428Y-15629140D01*
X17285000Y-15614854D01*
X17342143Y-15614854D01*
X17370714Y-15629140D01*
X17385000Y-15657711D01*
X17385000Y-15686283D01*
X17242143Y-15714854D01*
X17499286Y-15800569D02*
X17527857Y-15814854D01*
X17585000Y-15814854D01*
X17613571Y-15800569D01*
X17627857Y-15771997D01*
X17627857Y-15757711D01*
X17613571Y-15729140D01*
X17585000Y-15714854D01*
X17542143Y-15714854D01*
X17513571Y-15700569D01*
X17499286Y-15671997D01*
X17499286Y-15657711D01*
X17513571Y-15629140D01*
X17542143Y-15614854D01*
X17585000Y-15614854D01*
X17613571Y-15629140D01*
X17727857Y-15929140D02*
X17742143Y-15914854D01*
X17770714Y-15871997D01*
X17785000Y-15843426D01*
X17799286Y-15800569D01*
X17813571Y-15729140D01*
X17813571Y-15671997D01*
X17799286Y-15600569D01*
X17785000Y-15557711D01*
X17770714Y-15529140D01*
X17742143Y-15486283D01*
X17727857Y-15471997D01*
X10670000Y-16075140D02*
G75*
G03*
X10670000Y-16075140I-40000J0D01*
G01*
X11013571Y-15910854D02*
X11042143Y-15910854D01*
X11070714Y-15925140D01*
X11085000Y-15939426D01*
X11099286Y-15967997D01*
X11113571Y-16025140D01*
X11113571Y-16096569D01*
X11099286Y-16153711D01*
X11085000Y-16182283D01*
X11070714Y-16196569D01*
X11042143Y-16210854D01*
X11013571Y-16210854D01*
X10985000Y-16196569D01*
X10970714Y-16182283D01*
X10956428Y-16153711D01*
X10942143Y-16096569D01*
X10942143Y-16025140D01*
X10956428Y-15967997D01*
X10970714Y-15939426D01*
X10985000Y-15925140D01*
X11013571Y-15910854D01*
X11242143Y-16182283D02*
X11256428Y-16196569D01*
X11242143Y-16210854D01*
X11227857Y-16196569D01*
X11242143Y-16182283D01*
X11242143Y-16210854D01*
X11427857Y-16039426D02*
X11399286Y-16025140D01*
X11385000Y-16010854D01*
X11370714Y-15982283D01*
X11370714Y-15967997D01*
X11385000Y-15939426D01*
X11399286Y-15925140D01*
X11427857Y-15910854D01*
X11485000Y-15910854D01*
X11513571Y-15925140D01*
X11527857Y-15939426D01*
X11542143Y-15967997D01*
X11542143Y-15982283D01*
X11527857Y-16010854D01*
X11513571Y-16025140D01*
X11485000Y-16039426D01*
X11427857Y-16039426D01*
X11399286Y-16053711D01*
X11385000Y-16067997D01*
X11370714Y-16096569D01*
X11370714Y-16153711D01*
X11385000Y-16182283D01*
X11399286Y-16196569D01*
X11427857Y-16210854D01*
X11485000Y-16210854D01*
X11513571Y-16196569D01*
X11527857Y-16182283D01*
X11542143Y-16153711D01*
X11542143Y-16096569D01*
X11527857Y-16067997D01*
X11513571Y-16053711D01*
X11485000Y-16039426D01*
X11727857Y-15910854D02*
X11756428Y-15910854D01*
X11785000Y-15925140D01*
X11799286Y-15939426D01*
X11813571Y-15967997D01*
X11827857Y-16025140D01*
X11827857Y-16096569D01*
X11813571Y-16153711D01*
X11799286Y-16182283D01*
X11785000Y-16196569D01*
X11756428Y-16210854D01*
X11727857Y-16210854D01*
X11699286Y-16196569D01*
X11685000Y-16182283D01*
X11670714Y-16153711D01*
X11656428Y-16096569D01*
X11656428Y-16025140D01*
X11670714Y-15967997D01*
X11685000Y-15939426D01*
X11699286Y-15925140D01*
X11727857Y-15910854D01*
X12013571Y-15910854D02*
X12042143Y-15910854D01*
X12070714Y-15925140D01*
X12085000Y-15939426D01*
X12099286Y-15967997D01*
X12113571Y-16025140D01*
X12113571Y-16096569D01*
X12099286Y-16153711D01*
X12085000Y-16182283D01*
X12070714Y-16196569D01*
X12042143Y-16210854D01*
X12013571Y-16210854D01*
X11985000Y-16196569D01*
X11970714Y-16182283D01*
X11956428Y-16153711D01*
X11942143Y-16096569D01*
X11942143Y-16025140D01*
X11956428Y-15967997D01*
X11970714Y-15939426D01*
X11985000Y-15925140D01*
X12013571Y-15910854D01*
X12242143Y-16210854D02*
X12242143Y-16010854D01*
X12242143Y-16039426D02*
X12256428Y-16025140D01*
X12285000Y-16010854D01*
X12327857Y-16010854D01*
X12356428Y-16025140D01*
X12370714Y-16053711D01*
X12370714Y-16210854D01*
X12370714Y-16053711D02*
X12385000Y-16025140D01*
X12413571Y-16010854D01*
X12456428Y-16010854D01*
X12485000Y-16025140D01*
X12499286Y-16053711D01*
X12499286Y-16210854D01*
X12642143Y-16210854D02*
X12642143Y-16010854D01*
X12642143Y-16039426D02*
X12656428Y-16025140D01*
X12685000Y-16010854D01*
X12727857Y-16010854D01*
X12756428Y-16025140D01*
X12770714Y-16053711D01*
X12770714Y-16210854D01*
X12770714Y-16053711D02*
X12785000Y-16025140D01*
X12813571Y-16010854D01*
X12856428Y-16010854D01*
X12885000Y-16025140D01*
X12899286Y-16053711D01*
X12899286Y-16210854D01*
X13485000Y-15896569D02*
X13227857Y-16282283D01*
X13870714Y-15910854D02*
X13899286Y-15910854D01*
X13927857Y-15925140D01*
X13942143Y-15939426D01*
X13956428Y-15967997D01*
X13970714Y-16025140D01*
X13970714Y-16096569D01*
X13956428Y-16153711D01*
X13942143Y-16182283D01*
X13927857Y-16196569D01*
X13899286Y-16210854D01*
X13870714Y-16210854D01*
X13842143Y-16196569D01*
X13827857Y-16182283D01*
X13813571Y-16153711D01*
X13799286Y-16096569D01*
X13799286Y-16025140D01*
X13813571Y-15967997D01*
X13827857Y-15939426D01*
X13842143Y-15925140D01*
X13870714Y-15910854D01*
X14099286Y-16182283D02*
X14113571Y-16196569D01*
X14099286Y-16210854D01*
X14085000Y-16196569D01*
X14099286Y-16182283D01*
X14099286Y-16210854D01*
X14299286Y-15910854D02*
X14327857Y-15910854D01*
X14356428Y-15925140D01*
X14370714Y-15939426D01*
X14385000Y-15967997D01*
X14399286Y-16025140D01*
X14399286Y-16096569D01*
X14385000Y-16153711D01*
X14370714Y-16182283D01*
X14356428Y-16196569D01*
X14327857Y-16210854D01*
X14299286Y-16210854D01*
X14270714Y-16196569D01*
X14256428Y-16182283D01*
X14242143Y-16153711D01*
X14227857Y-16096569D01*
X14227857Y-16025140D01*
X14242143Y-15967997D01*
X14256428Y-15939426D01*
X14270714Y-15925140D01*
X14299286Y-15910854D01*
X14499286Y-15910854D02*
X14685000Y-15910854D01*
X14585000Y-16025140D01*
X14627857Y-16025140D01*
X14656428Y-16039426D01*
X14670714Y-16053711D01*
X14685000Y-16082283D01*
X14685000Y-16153711D01*
X14670714Y-16182283D01*
X14656428Y-16196569D01*
X14627857Y-16210854D01*
X14542143Y-16210854D01*
X14513571Y-16196569D01*
X14499286Y-16182283D01*
X14970714Y-16210854D02*
X14799286Y-16210854D01*
X14885000Y-16210854D02*
X14885000Y-15910854D01*
X14856428Y-15953711D01*
X14827857Y-15982283D01*
X14799286Y-15996569D01*
X15242143Y-15910854D02*
X15099286Y-15910854D01*
X15085000Y-16053711D01*
X15099286Y-16039426D01*
X15127857Y-16025140D01*
X15199286Y-16025140D01*
X15227857Y-16039426D01*
X15242143Y-16053711D01*
X15256428Y-16082283D01*
X15256428Y-16153711D01*
X15242143Y-16182283D01*
X15227857Y-16196569D01*
X15199286Y-16210854D01*
X15127857Y-16210854D01*
X15099286Y-16196569D01*
X15085000Y-16182283D01*
X15370714Y-15910854D02*
X15370714Y-15967997D01*
X15485000Y-15910854D02*
X15485000Y-15967997D01*
X15927857Y-16325140D02*
X15913571Y-16310854D01*
X15885000Y-16267997D01*
X15870714Y-16239426D01*
X15856428Y-16196569D01*
X15842143Y-16125140D01*
X15842143Y-16067997D01*
X15856428Y-15996569D01*
X15870714Y-15953711D01*
X15885000Y-15925140D01*
X15913571Y-15882283D01*
X15927857Y-15867997D01*
X16199286Y-16210854D02*
X16027857Y-16210854D01*
X16113571Y-16210854D02*
X16113571Y-15910854D01*
X16085000Y-15953711D01*
X16056428Y-15982283D01*
X16027857Y-15996569D01*
X16370714Y-16039426D02*
X16342143Y-16025140D01*
X16327857Y-16010854D01*
X16313571Y-15982283D01*
X16313571Y-15967997D01*
X16327857Y-15939426D01*
X16342143Y-15925140D01*
X16370714Y-15910854D01*
X16427857Y-15910854D01*
X16456428Y-15925140D01*
X16470714Y-15939426D01*
X16485000Y-15967997D01*
X16485000Y-15982283D01*
X16470714Y-16010854D01*
X16456428Y-16025140D01*
X16427857Y-16039426D01*
X16370714Y-16039426D01*
X16342143Y-16053711D01*
X16327857Y-16067997D01*
X16313571Y-16096569D01*
X16313571Y-16153711D01*
X16327857Y-16182283D01*
X16342143Y-16196569D01*
X16370714Y-16210854D01*
X16427857Y-16210854D01*
X16456428Y-16196569D01*
X16470714Y-16182283D01*
X16485000Y-16153711D01*
X16485000Y-16096569D01*
X16470714Y-16067997D01*
X16456428Y-16053711D01*
X16427857Y-16039426D01*
X16842143Y-16210854D02*
X16842143Y-15910854D01*
X16970714Y-16210854D02*
X16970714Y-16053711D01*
X16956428Y-16025140D01*
X16927857Y-16010854D01*
X16885000Y-16010854D01*
X16856428Y-16025140D01*
X16842143Y-16039426D01*
X17156428Y-16210854D02*
X17127857Y-16196569D01*
X17113571Y-16182283D01*
X17099286Y-16153711D01*
X17099286Y-16067997D01*
X17113571Y-16039426D01*
X17127857Y-16025140D01*
X17156428Y-16010854D01*
X17199286Y-16010854D01*
X17227857Y-16025140D01*
X17242143Y-16039426D01*
X17256428Y-16067997D01*
X17256428Y-16153711D01*
X17242143Y-16182283D01*
X17227857Y-16196569D01*
X17199286Y-16210854D01*
X17156428Y-16210854D01*
X17427857Y-16210854D02*
X17399286Y-16196569D01*
X17385000Y-16167997D01*
X17385000Y-15910854D01*
X17656428Y-16196569D02*
X17627857Y-16210854D01*
X17570714Y-16210854D01*
X17542143Y-16196569D01*
X17527857Y-16167997D01*
X17527857Y-16053711D01*
X17542143Y-16025140D01*
X17570714Y-16010854D01*
X17627857Y-16010854D01*
X17656428Y-16025140D01*
X17670714Y-16053711D01*
X17670714Y-16082283D01*
X17527857Y-16110854D01*
X17785000Y-16196569D02*
X17813571Y-16210854D01*
X17870714Y-16210854D01*
X17899286Y-16196569D01*
X17913571Y-16167997D01*
X17913571Y-16153711D01*
X17899286Y-16125140D01*
X17870714Y-16110854D01*
X17827857Y-16110854D01*
X17799286Y-16096569D01*
X17785000Y-16067997D01*
X17785000Y-16053711D01*
X17799286Y-16025140D01*
X17827857Y-16010854D01*
X17870714Y-16010854D01*
X17899286Y-16025140D01*
X18013571Y-16325140D02*
X18027857Y-16310854D01*
X18056428Y-16267997D01*
X18070714Y-16239426D01*
X18085000Y-16196569D01*
X18099286Y-16125140D01*
X18099286Y-16067997D01*
X18085000Y-15996569D01*
X18070714Y-15953711D01*
X18056428Y-15925140D01*
X18027857Y-15882283D01*
X18013571Y-15867997D01*
X10625000Y-16426140D02*
X10625000Y-16516140D01*
X10580000Y-16471140D02*
X10670000Y-16471140D01*
X11013571Y-16306854D02*
X11042143Y-16306854D01*
X11070714Y-16321140D01*
X11085000Y-16335426D01*
X11099286Y-16363997D01*
X11113571Y-16421140D01*
X11113571Y-16492569D01*
X11099286Y-16549711D01*
X11085000Y-16578283D01*
X11070714Y-16592569D01*
X11042143Y-16606854D01*
X11013571Y-16606854D01*
X10985000Y-16592569D01*
X10970714Y-16578283D01*
X10956428Y-16549711D01*
X10942143Y-16492569D01*
X10942143Y-16421140D01*
X10956428Y-16363997D01*
X10970714Y-16335426D01*
X10985000Y-16321140D01*
X11013571Y-16306854D01*
X11242143Y-16578283D02*
X11256428Y-16592569D01*
X11242143Y-16606854D01*
X11227857Y-16592569D01*
X11242143Y-16578283D01*
X11242143Y-16606854D01*
X11399286Y-16606854D02*
X11456428Y-16606854D01*
X11485000Y-16592569D01*
X11499286Y-16578283D01*
X11527857Y-16535426D01*
X11542143Y-16478283D01*
X11542143Y-16363997D01*
X11527857Y-16335426D01*
X11513571Y-16321140D01*
X11485000Y-16306854D01*
X11427857Y-16306854D01*
X11399286Y-16321140D01*
X11385000Y-16335426D01*
X11370714Y-16363997D01*
X11370714Y-16435426D01*
X11385000Y-16463997D01*
X11399286Y-16478283D01*
X11427857Y-16492569D01*
X11485000Y-16492569D01*
X11513571Y-16478283D01*
X11527857Y-16463997D01*
X11542143Y-16435426D01*
X11727857Y-16306854D02*
X11756428Y-16306854D01*
X11785000Y-16321140D01*
X11799286Y-16335426D01*
X11813571Y-16363997D01*
X11827857Y-16421140D01*
X11827857Y-16492569D01*
X11813571Y-16549711D01*
X11799286Y-16578283D01*
X11785000Y-16592569D01*
X11756428Y-16606854D01*
X11727857Y-16606854D01*
X11699286Y-16592569D01*
X11685000Y-16578283D01*
X11670714Y-16549711D01*
X11656428Y-16492569D01*
X11656428Y-16421140D01*
X11670714Y-16363997D01*
X11685000Y-16335426D01*
X11699286Y-16321140D01*
X11727857Y-16306854D01*
X12013571Y-16306854D02*
X12042143Y-16306854D01*
X12070714Y-16321140D01*
X12085000Y-16335426D01*
X12099286Y-16363997D01*
X12113571Y-16421140D01*
X12113571Y-16492569D01*
X12099286Y-16549711D01*
X12085000Y-16578283D01*
X12070714Y-16592569D01*
X12042143Y-16606854D01*
X12013571Y-16606854D01*
X11985000Y-16592569D01*
X11970714Y-16578283D01*
X11956428Y-16549711D01*
X11942143Y-16492569D01*
X11942143Y-16421140D01*
X11956428Y-16363997D01*
X11970714Y-16335426D01*
X11985000Y-16321140D01*
X12013571Y-16306854D01*
X12242143Y-16606854D02*
X12242143Y-16406854D01*
X12242143Y-16435426D02*
X12256428Y-16421140D01*
X12285000Y-16406854D01*
X12327857Y-16406854D01*
X12356428Y-16421140D01*
X12370714Y-16449711D01*
X12370714Y-16606854D01*
X12370714Y-16449711D02*
X12385000Y-16421140D01*
X12413571Y-16406854D01*
X12456428Y-16406854D01*
X12485000Y-16421140D01*
X12499286Y-16449711D01*
X12499286Y-16606854D01*
X12642143Y-16606854D02*
X12642143Y-16406854D01*
X12642143Y-16435426D02*
X12656428Y-16421140D01*
X12685000Y-16406854D01*
X12727857Y-16406854D01*
X12756428Y-16421140D01*
X12770714Y-16449711D01*
X12770714Y-16606854D01*
X12770714Y-16449711D02*
X12785000Y-16421140D01*
X12813571Y-16406854D01*
X12856428Y-16406854D01*
X12885000Y-16421140D01*
X12899286Y-16449711D01*
X12899286Y-16606854D01*
X13485000Y-16292569D02*
X13227857Y-16678283D01*
X13870714Y-16306854D02*
X13899286Y-16306854D01*
X13927857Y-16321140D01*
X13942143Y-16335426D01*
X13956428Y-16363997D01*
X13970714Y-16421140D01*
X13970714Y-16492569D01*
X13956428Y-16549711D01*
X13942143Y-16578283D01*
X13927857Y-16592569D01*
X13899286Y-16606854D01*
X13870714Y-16606854D01*
X13842143Y-16592569D01*
X13827857Y-16578283D01*
X13813571Y-16549711D01*
X13799286Y-16492569D01*
X13799286Y-16421140D01*
X13813571Y-16363997D01*
X13827857Y-16335426D01*
X13842143Y-16321140D01*
X13870714Y-16306854D01*
X14099286Y-16578283D02*
X14113571Y-16592569D01*
X14099286Y-16606854D01*
X14085000Y-16592569D01*
X14099286Y-16578283D01*
X14099286Y-16606854D01*
X14299286Y-16306854D02*
X14327857Y-16306854D01*
X14356428Y-16321140D01*
X14370714Y-16335426D01*
X14385000Y-16363997D01*
X14399286Y-16421140D01*
X14399286Y-16492569D01*
X14385000Y-16549711D01*
X14370714Y-16578283D01*
X14356428Y-16592569D01*
X14327857Y-16606854D01*
X14299286Y-16606854D01*
X14270714Y-16592569D01*
X14256428Y-16578283D01*
X14242143Y-16549711D01*
X14227857Y-16492569D01*
X14227857Y-16421140D01*
X14242143Y-16363997D01*
X14256428Y-16335426D01*
X14270714Y-16321140D01*
X14299286Y-16306854D01*
X14499286Y-16306854D02*
X14685000Y-16306854D01*
X14585000Y-16421140D01*
X14627857Y-16421140D01*
X14656428Y-16435426D01*
X14670714Y-16449711D01*
X14685000Y-16478283D01*
X14685000Y-16549711D01*
X14670714Y-16578283D01*
X14656428Y-16592569D01*
X14627857Y-16606854D01*
X14542143Y-16606854D01*
X14513571Y-16592569D01*
X14499286Y-16578283D01*
X14956428Y-16306854D02*
X14813571Y-16306854D01*
X14799286Y-16449711D01*
X14813571Y-16435426D01*
X14842143Y-16421140D01*
X14913571Y-16421140D01*
X14942143Y-16435426D01*
X14956428Y-16449711D01*
X14970714Y-16478283D01*
X14970714Y-16549711D01*
X14956428Y-16578283D01*
X14942143Y-16592569D01*
X14913571Y-16606854D01*
X14842143Y-16606854D01*
X14813571Y-16592569D01*
X14799286Y-16578283D01*
X15227857Y-16406854D02*
X15227857Y-16606854D01*
X15156428Y-16292569D02*
X15085000Y-16506854D01*
X15270714Y-16506854D01*
X15370714Y-16306854D02*
X15370714Y-16363997D01*
X15485000Y-16306854D02*
X15485000Y-16363997D01*
X15927857Y-16721140D02*
X15913571Y-16706854D01*
X15885000Y-16663997D01*
X15870714Y-16635426D01*
X15856428Y-16592569D01*
X15842143Y-16521140D01*
X15842143Y-16463997D01*
X15856428Y-16392569D01*
X15870714Y-16349711D01*
X15885000Y-16321140D01*
X15913571Y-16278283D01*
X15927857Y-16263997D01*
X16170714Y-16406854D02*
X16170714Y-16606854D01*
X16099286Y-16292569D02*
X16027857Y-16506854D01*
X16213571Y-16506854D01*
X16556428Y-16606854D02*
X16556428Y-16306854D01*
X16685000Y-16606854D02*
X16685000Y-16449711D01*
X16670714Y-16421140D01*
X16642143Y-16406854D01*
X16599286Y-16406854D01*
X16570714Y-16421140D01*
X16556428Y-16435426D01*
X16870714Y-16606854D02*
X16842143Y-16592569D01*
X16827857Y-16578283D01*
X16813571Y-16549711D01*
X16813571Y-16463997D01*
X16827857Y-16435426D01*
X16842143Y-16421140D01*
X16870714Y-16406854D01*
X16913571Y-16406854D01*
X16942143Y-16421140D01*
X16956428Y-16435426D01*
X16970714Y-16463997D01*
X16970714Y-16549711D01*
X16956428Y-16578283D01*
X16942143Y-16592569D01*
X16913571Y-16606854D01*
X16870714Y-16606854D01*
X17142143Y-16606854D02*
X17113571Y-16592569D01*
X17099286Y-16563997D01*
X17099286Y-16306854D01*
X17370714Y-16592569D02*
X17342143Y-16606854D01*
X17285000Y-16606854D01*
X17256428Y-16592569D01*
X17242143Y-16563997D01*
X17242143Y-16449711D01*
X17256428Y-16421140D01*
X17285000Y-16406854D01*
X17342143Y-16406854D01*
X17370714Y-16421140D01*
X17385000Y-16449711D01*
X17385000Y-16478283D01*
X17242143Y-16506854D01*
X17499286Y-16592569D02*
X17527857Y-16606854D01*
X17585000Y-16606854D01*
X17613571Y-16592569D01*
X17627857Y-16563997D01*
X17627857Y-16549711D01*
X17613571Y-16521140D01*
X17585000Y-16506854D01*
X17542143Y-16506854D01*
X17513571Y-16492569D01*
X17499286Y-16463997D01*
X17499286Y-16449711D01*
X17513571Y-16421140D01*
X17542143Y-16406854D01*
X17585000Y-16406854D01*
X17613571Y-16421140D01*
X17727857Y-16721140D02*
X17742143Y-16706854D01*
X17770714Y-16663997D01*
X17785000Y-16635426D01*
X17799286Y-16592569D01*
X17813571Y-16521140D01*
X17813571Y-16463997D01*
X17799286Y-16392569D01*
X17785000Y-16349711D01*
X17770714Y-16321140D01*
X17742143Y-16278283D01*
X17727857Y-16263997D01*
X10655356Y-16902496D02*
X10655356Y-16831784D01*
X10584644Y-16831784D01*
X10584644Y-16902496D01*
X10655356Y-16902496D01*
X11113571Y-17002854D02*
X10942143Y-17002854D01*
X11027857Y-17002854D02*
X11027857Y-16702854D01*
X10999286Y-16745711D01*
X10970714Y-16774283D01*
X10942143Y-16788569D01*
X11242143Y-16974283D02*
X11256428Y-16988569D01*
X11242143Y-17002854D01*
X11227857Y-16988569D01*
X11242143Y-16974283D01*
X11242143Y-17002854D01*
X11442143Y-16702854D02*
X11470714Y-16702854D01*
X11499286Y-16717140D01*
X11513571Y-16731426D01*
X11527857Y-16759997D01*
X11542143Y-16817140D01*
X11542143Y-16888569D01*
X11527857Y-16945712D01*
X11513571Y-16974283D01*
X11499286Y-16988569D01*
X11470714Y-17002854D01*
X11442143Y-17002854D01*
X11413571Y-16988569D01*
X11399286Y-16974283D01*
X11385000Y-16945712D01*
X11370714Y-16888569D01*
X11370714Y-16817140D01*
X11385000Y-16759997D01*
X11399286Y-16731426D01*
X11413571Y-16717140D01*
X11442143Y-16702854D01*
X11727857Y-16702854D02*
X11756428Y-16702854D01*
X11785000Y-16717140D01*
X11799286Y-16731426D01*
X11813571Y-16759997D01*
X11827857Y-16817140D01*
X11827857Y-16888569D01*
X11813571Y-16945712D01*
X11799286Y-16974283D01*
X11785000Y-16988569D01*
X11756428Y-17002854D01*
X11727857Y-17002854D01*
X11699286Y-16988569D01*
X11685000Y-16974283D01*
X11670714Y-16945712D01*
X11656428Y-16888569D01*
X11656428Y-16817140D01*
X11670714Y-16759997D01*
X11685000Y-16731426D01*
X11699286Y-16717140D01*
X11727857Y-16702854D01*
X12013571Y-16702854D02*
X12042143Y-16702854D01*
X12070714Y-16717140D01*
X12085000Y-16731426D01*
X12099286Y-16759997D01*
X12113571Y-16817140D01*
X12113571Y-16888569D01*
X12099286Y-16945712D01*
X12085000Y-16974283D01*
X12070714Y-16988569D01*
X12042143Y-17002854D01*
X12013571Y-17002854D01*
X11985000Y-16988569D01*
X11970714Y-16974283D01*
X11956428Y-16945712D01*
X11942143Y-16888569D01*
X11942143Y-16817140D01*
X11956428Y-16759997D01*
X11970714Y-16731426D01*
X11985000Y-16717140D01*
X12013571Y-16702854D01*
X12242143Y-17002854D02*
X12242143Y-16802854D01*
X12242143Y-16831426D02*
X12256428Y-16817140D01*
X12285000Y-16802854D01*
X12327857Y-16802854D01*
X12356428Y-16817140D01*
X12370714Y-16845712D01*
X12370714Y-17002854D01*
X12370714Y-16845712D02*
X12385000Y-16817140D01*
X12413571Y-16802854D01*
X12456428Y-16802854D01*
X12485000Y-16817140D01*
X12499286Y-16845712D01*
X12499286Y-17002854D01*
X12642143Y-17002854D02*
X12642143Y-16802854D01*
X12642143Y-16831426D02*
X12656428Y-16817140D01*
X12685000Y-16802854D01*
X12727857Y-16802854D01*
X12756428Y-16817140D01*
X12770714Y-16845712D01*
X12770714Y-17002854D01*
X12770714Y-16845712D02*
X12785000Y-16817140D01*
X12813571Y-16802854D01*
X12856428Y-16802854D01*
X12885000Y-16817140D01*
X12899286Y-16845712D01*
X12899286Y-17002854D01*
X13485000Y-16688569D02*
X13227857Y-17074283D01*
X13870714Y-16702854D02*
X13899286Y-16702854D01*
X13927857Y-16717140D01*
X13942143Y-16731426D01*
X13956428Y-16759997D01*
X13970714Y-16817140D01*
X13970714Y-16888569D01*
X13956428Y-16945712D01*
X13942143Y-16974283D01*
X13927857Y-16988569D01*
X13899286Y-17002854D01*
X13870714Y-17002854D01*
X13842143Y-16988569D01*
X13827857Y-16974283D01*
X13813571Y-16945712D01*
X13799286Y-16888569D01*
X13799286Y-16817140D01*
X13813571Y-16759997D01*
X13827857Y-16731426D01*
X13842143Y-16717140D01*
X13870714Y-16702854D01*
X14099286Y-16974283D02*
X14113571Y-16988569D01*
X14099286Y-17002854D01*
X14085000Y-16988569D01*
X14099286Y-16974283D01*
X14099286Y-17002854D01*
X14299286Y-16702854D02*
X14327857Y-16702854D01*
X14356428Y-16717140D01*
X14370714Y-16731426D01*
X14385000Y-16759997D01*
X14399286Y-16817140D01*
X14399286Y-16888569D01*
X14385000Y-16945712D01*
X14370714Y-16974283D01*
X14356428Y-16988569D01*
X14327857Y-17002854D01*
X14299286Y-17002854D01*
X14270714Y-16988569D01*
X14256428Y-16974283D01*
X14242143Y-16945712D01*
X14227857Y-16888569D01*
X14227857Y-16817140D01*
X14242143Y-16759997D01*
X14256428Y-16731426D01*
X14270714Y-16717140D01*
X14299286Y-16702854D01*
X14499286Y-16702854D02*
X14685000Y-16702854D01*
X14585000Y-16817140D01*
X14627857Y-16817140D01*
X14656428Y-16831426D01*
X14670714Y-16845712D01*
X14685000Y-16874283D01*
X14685000Y-16945712D01*
X14670714Y-16974283D01*
X14656428Y-16988569D01*
X14627857Y-17002854D01*
X14542143Y-17002854D01*
X14513571Y-16988569D01*
X14499286Y-16974283D01*
X14827857Y-17002854D02*
X14885000Y-17002854D01*
X14913571Y-16988569D01*
X14927857Y-16974283D01*
X14956428Y-16931426D01*
X14970714Y-16874283D01*
X14970714Y-16759997D01*
X14956428Y-16731426D01*
X14942143Y-16717140D01*
X14913571Y-16702854D01*
X14856428Y-16702854D01*
X14827857Y-16717140D01*
X14813571Y-16731426D01*
X14799286Y-16759997D01*
X14799286Y-16831426D01*
X14813571Y-16859997D01*
X14827857Y-16874283D01*
X14856428Y-16888569D01*
X14913571Y-16888569D01*
X14942143Y-16874283D01*
X14956428Y-16859997D01*
X14970714Y-16831426D01*
X15227857Y-16802854D02*
X15227857Y-17002854D01*
X15156428Y-16688569D02*
X15085000Y-16902854D01*
X15270714Y-16902854D01*
X15370714Y-16702854D02*
X15370714Y-16759997D01*
X15485000Y-16702854D02*
X15485000Y-16759997D01*
X15927857Y-17117140D02*
X15913571Y-17102854D01*
X15885000Y-17059997D01*
X15870714Y-17031426D01*
X15856428Y-16988569D01*
X15842143Y-16917140D01*
X15842143Y-16859997D01*
X15856428Y-16788569D01*
X15870714Y-16745711D01*
X15885000Y-16717140D01*
X15913571Y-16674283D01*
X15927857Y-16659997D01*
X16170714Y-16802854D02*
X16170714Y-17002854D01*
X16099286Y-16688569D02*
X16027857Y-16902854D01*
X16213571Y-16902854D01*
X16556428Y-17002854D02*
X16556428Y-16702854D01*
X16685000Y-17002854D02*
X16685000Y-16845712D01*
X16670714Y-16817140D01*
X16642143Y-16802854D01*
X16599286Y-16802854D01*
X16570714Y-16817140D01*
X16556428Y-16831426D01*
X16870714Y-17002854D02*
X16842143Y-16988569D01*
X16827857Y-16974283D01*
X16813571Y-16945712D01*
X16813571Y-16859997D01*
X16827857Y-16831426D01*
X16842143Y-16817140D01*
X16870714Y-16802854D01*
X16913571Y-16802854D01*
X16942143Y-16817140D01*
X16956428Y-16831426D01*
X16970714Y-16859997D01*
X16970714Y-16945712D01*
X16956428Y-16974283D01*
X16942143Y-16988569D01*
X16913571Y-17002854D01*
X16870714Y-17002854D01*
X17142143Y-17002854D02*
X17113571Y-16988569D01*
X17099286Y-16959997D01*
X17099286Y-16702854D01*
X17370714Y-16988569D02*
X17342143Y-17002854D01*
X17285000Y-17002854D01*
X17256428Y-16988569D01*
X17242143Y-16959997D01*
X17242143Y-16845712D01*
X17256428Y-16817140D01*
X17285000Y-16802854D01*
X17342143Y-16802854D01*
X17370714Y-16817140D01*
X17385000Y-16845712D01*
X17385000Y-16874283D01*
X17242143Y-16902854D01*
X17499286Y-16988569D02*
X17527857Y-17002854D01*
X17585000Y-17002854D01*
X17613571Y-16988569D01*
X17627857Y-16959997D01*
X17627857Y-16945712D01*
X17613571Y-16917140D01*
X17585000Y-16902854D01*
X17542143Y-16902854D01*
X17513571Y-16888569D01*
X17499286Y-16859997D01*
X17499286Y-16845712D01*
X17513571Y-16817140D01*
X17542143Y-16802854D01*
X17585000Y-16802854D01*
X17613571Y-16817140D01*
X17727857Y-17117140D02*
X17742143Y-17102854D01*
X17770714Y-17059997D01*
X17785000Y-17031426D01*
X17799286Y-16988569D01*
X17813571Y-16917140D01*
X17813571Y-16859997D01*
X17799286Y-16788569D01*
X17785000Y-16745711D01*
X17770714Y-16717140D01*
X17742143Y-16674283D01*
X17727857Y-16659997D01*
M02*
