M48
; DRILL file {KiCad 5.1.10-88a1d61d58~90~ubuntu20.04.1} date Tue Oct 12 10:12:21 2021
; FORMAT={-:-/ absolute / metric / decimal}
; #@! TF.CreationDate,2021-10-12T10:12:21+02:00
; #@! TF.GenerationSoftware,Kicad,Pcbnew,5.1.10-88a1d61d58~90~ubuntu20.04.1
; #@! TF.FileFunction,Plated,1,2,PTH
FMAT,2
METRIC
T1C0.700
T2C0.800
T3C0.900
T4C1.000
%
G90
G05
T1
X123.3Y-127.4
X123.3Y-129.9
T2
X110.0Y-113.5
X110.0Y-121.12
X111.71Y-124.76
X111.71Y-132.38
X111.785Y-136.4
X111.785Y-139.7
X113.3Y-113.5
X113.3Y-121.12
X114.25Y-124.76
X114.25Y-132.38
X116.6Y-113.5
X116.6Y-121.12
X116.79Y-124.76
X116.79Y-132.38
X119.33Y-124.76
X119.33Y-132.38
X119.405Y-136.4
X119.405Y-139.7
T3
X123.3Y-118.1
X123.3Y-119.37
X123.3Y-120.64
X123.3Y-121.91
T4
X114.205Y-145.626
X116.745Y-145.626
X119.285Y-145.626
X121.825Y-145.626
T0
M30
