G04 #@! TF.GenerationSoftware,KiCad,Pcbnew,5.1.10-88a1d61d58~90~ubuntu20.04.1*
G04 #@! TF.CreationDate,2021-10-12T10:11:59+02:00*
G04 #@! TF.ProjectId,attiny85_I2C_RGB_LED_v2,61747469-6e79-4383-955f-4932435f5247,2.0*
G04 #@! TF.SameCoordinates,Original*
G04 #@! TF.FileFunction,Legend,Bot*
G04 #@! TF.FilePolarity,Positive*
%FSLAX46Y46*%
G04 Gerber Fmt 4.6, Leading zero omitted, Abs format (unit mm)*
G04 Created by KiCad (PCBNEW 5.1.10-88a1d61d58~90~ubuntu20.04.1) date 2021-10-12 10:11:59*
%MOMM*%
%LPD*%
G01*
G04 APERTURE LIST*
%ADD10O,1.702000X1.702000*%
%ADD11C,1.702000*%
%ADD12O,1.802000X1.802000*%
%ADD13O,1.902000X1.172000*%
%ADD14C,1.502000*%
G04 APERTURE END LIST*
%LPC*%
D10*
X119405400Y-139700000D03*
D11*
X111785400Y-139700000D03*
X111785400Y-136400000D03*
D10*
X119405400Y-136400000D03*
G36*
G01*
X118530000Y-123909000D02*
X120130000Y-123909000D01*
G75*
G02*
X120181000Y-123960000I0J-51000D01*
G01*
X120181000Y-125560000D01*
G75*
G02*
X120130000Y-125611000I-51000J0D01*
G01*
X118530000Y-125611000D01*
G75*
G02*
X118479000Y-125560000I0J51000D01*
G01*
X118479000Y-123960000D01*
G75*
G02*
X118530000Y-123909000I51000J0D01*
G01*
G37*
X111710000Y-132380000D03*
X116790000Y-124760000D03*
X114250000Y-132380000D03*
X114250000Y-124760000D03*
X116790000Y-132380000D03*
X111710000Y-124760000D03*
X119330000Y-132380000D03*
G36*
G01*
X120975400Y-144725400D02*
X122675400Y-144725400D01*
G75*
G02*
X122726400Y-144776400I0J-51000D01*
G01*
X122726400Y-146476400D01*
G75*
G02*
X122675400Y-146527400I-51000J0D01*
G01*
X120975400Y-146527400D01*
G75*
G02*
X120924400Y-146476400I0J51000D01*
G01*
X120924400Y-144776400D01*
G75*
G02*
X120975400Y-144725400I51000J0D01*
G01*
G37*
D12*
X119285400Y-145626400D03*
X116745400Y-145626400D03*
X114205400Y-145626400D03*
G36*
G01*
X122400000Y-117514000D02*
X124200000Y-117514000D01*
G75*
G02*
X124251000Y-117565000I0J-51000D01*
G01*
X124251000Y-118635000D01*
G75*
G02*
X124200000Y-118686000I-51000J0D01*
G01*
X122400000Y-118686000D01*
G75*
G02*
X122349000Y-118635000I0J51000D01*
G01*
X122349000Y-117565000D01*
G75*
G02*
X122400000Y-117514000I51000J0D01*
G01*
G37*
D13*
X123300000Y-119370000D03*
X123300000Y-120640000D03*
X123300000Y-121910000D03*
D14*
X123300000Y-127400000D03*
X123300000Y-129900000D03*
D11*
X110000000Y-113500000D03*
D10*
X110000000Y-121120000D03*
X116600000Y-121120000D03*
D11*
X116600000Y-113500000D03*
X113300000Y-113500000D03*
D10*
X113300000Y-121120000D03*
M02*
